<svg xmlns="http://www.w3.org/2000/svg" width="29" height="44" viewBox="0 0 29 44">
    <defs>
        <filter id="prefix__a" width="157.1%" height="233.3%" x="-28.6%" y="-66.7%" filterUnits="objectBoundingBox">
            <feGaussianBlur in="SourceGraphic" stdDeviation="2"/>
        </filter>
    </defs>
    <g fill="none" fill-rule="evenodd" transform="translate(-1 1)">
        <ellipse cx="15.5" cy="33.5" fill="#444" filter="url(#prefix__a)" opacity=".357" rx="10.5" ry="4.5"/>
        <g fill-rule="nonzero">
            <path fill="#ff4954" stroke="#ff4954" d="M27.805 8.15c-.672-1.575-1.634-2.987-2.857-4.199-1.222-1.212-2.642-2.16-4.225-2.824C19.085.437 17.347.09 15.556.09s-3.529.349-5.166 1.035c-1.584.664-3.003 1.615-4.226 2.823-1.223 1.213-2.184 2.628-2.857 4.2-.697 1.633-1.05 3.368-1.05 5.154 0 2.562.603 5.114 1.79 7.575.955 1.978 2.289 3.905 3.969 5.738 2.87 3.13 5.881 5.042 6.736 5.554.247.148.525.221.8.221.28 0 .555-.073.802-.221.854-.512 3.864-2.425 6.735-5.554 1.68-1.829 3.014-3.76 3.969-5.738 1.194-2.457 1.798-5.005 1.798-7.571 0-1.786-.354-3.521-1.05-5.155zm-8.218 9.27c-1.079 1.074-2.51 1.67-4.03 1.67-1.522 0-2.953-.596-4.031-1.67-1.074-1.08-1.67-2.51-1.67-4.03 0-1.523.596-2.953 1.67-4.032 1.078-1.079 2.509-1.669 4.03-1.669 1.522 0 2.952.59 4.031 1.67 1.079 1.078 1.67 2.508 1.67 4.03 0 1.522-.591 2.952-1.67 4.03z"/>
        </g>
    </g>
</svg>
