<svg xmlns="http://www.w3.org/2000/svg" xlink="http://www.w3.org/1999/xlink" width="0" height="0" style="display:none;"><symbol viewBox="0 0 24 24" id="close-circle-line"><path fill="none" d="M0 0h24v24H0z"/><path d="M12 22C6.477 22 2 17.523 2 12S6.477 2 12 2s10 4.477 10 10-4.477 10-10 10zm0-2a8 8 0 1 0 0-16 8 8 0 0 0 0 16zm0-9.414l2.828-2.829 1.415 1.415L13.414 12l2.829 2.828-1.415 1.415L12 13.414l-2.828 2.829-1.415-1.415L10.586 12 7.757 9.172l1.415-1.415L12 10.586z"/></symbol><symbol viewBox="0 0 24 24" id="add-circle-line"><path fill="none" d="M0 0h24v24H0z"/><path d="M11 11V7h2v4h4v2h-4v4h-2v-4H7v-2h4zm1 11C6.477 22 2 17.523 2 12S6.477 2 12 2s10 4.477 10 10-4.477 10-10 10zm0-2a8 8 0 1 0 0-16 8 8 0 0 0 0 16z"/></symbol><symbol viewBox="0 0 24 24" id="information-fill"><path fill="none" d="M0 0h24v24H0z"/><path d="M12 22C6.477 22 2 17.523 2 12S6.477 2 12 2s10 4.477 10 10-4.477 10-10 10zm-1-11v6h2v-6h-2zm0-4v2h2V7h-2z"/></symbol><symbol viewBox="0 0 24 24" id="cake-line"><path fill="none" d="M0 0h24v24H0z"/><path d="M13 7v4h7a1 1 0 0 1 1 1v8h2v2H1v-2h2v-8a1 1 0 0 1 1-1h7V7h2zm6 6H5v7h14v-7zM13.83.402A3 3 0 0 1 12.732 4.5L11 5.5a3 3 0 0 1 1.098-4.098l1.732-1z"/></symbol><symbol viewBox="0 0 24 24" id="phone-line"><path fill="none" d="M0 0h24v24H0z"/><path d="M9.366 10.682a10.556 10.556 0 0 0 3.952 3.952l.884-1.238a1 1 0 0 1 1.294-.296 11.422 11.422 0 0 0 4.583 1.364 1 1 0 0 1 .921.997v4.462a1 1 0 0 1-.898.995c-.53.055-1.064.082-1.602.082C9.94 21 3 14.06 3 5.5c0-.538.027-1.072.082-1.602A1 1 0 0 1 4.077 3h4.462a1 1 0 0 1 .997.921A11.422 11.422 0 0 0 10.9 8.504a1 1 0 0 1-.296 1.294l-1.238.884zm-2.522-.657l1.9-1.357A13.41 13.41 0 0 1 7.647 5H5.01c-.006.166-.009.333-.009.5C5 12.956 11.044 19 18.5 19c.167 0 .334-.003.5-.01v-2.637a13.41 13.41 0 0 1-3.668-1.097l-1.357 1.9a12.442 12.442 0 0 1-1.588-.75l-.058-.033a12.556 12.556 0 0 1-4.702-4.702l-.033-.058a12.442 12.442 0 0 1-.75-1.588z"/></symbol><symbol viewBox="0 0 24 24" id="hospital-line"><path fill="none" d="M0 0h24v24H0z"/><path d="M8 20v-6h8v6h3V4H5v16h3zm2 0h4v-4h-4v4zm11 0h2v2H1v-2h2V3a1 1 0 0 1 1-1h16a1 1 0 0 1 1 1v17zM11 8V6h2v2h2v2h-2v2h-2v-2H9V8h2z"/></symbol><symbol viewBox="0 0 24 24" id="government-line"><path fill="none" d="M0 0h24v24H0z"/><path d="M20 6h3v2h-1v11h1v2H1v-2h1V8H1V6h3V4a1 1 0 0 1 1-1h14a1 1 0 0 1 1 1v2zm0 2H4v11h3v-7h2v7h2v-7h2v7h2v-7h2v7h3V8zM6 5v1h12V5H6z"/></symbol><symbol viewBox="0 0 24 24" id="file-list-3-line"><path fill="none" d="M0 0h24v24H0z"/><path d="M19 22H5a3 3 0 0 1-3-3V3a1 1 0 0 1 1-1h14a1 1 0 0 1 1 1v12h4v4a3 3 0 0 1-3 3zm-1-5v2a1 1 0 0 0 2 0v-2h-2zm-2 3V4H4v15a1 1 0 0 0 1 1h11zM6 7h8v2H6V7zm0 4h8v2H6v-2zm0 4h5v2H6v-2z"/></symbol><symbol viewBox="0 0 24 24" id="upload-cloud-2-line"><path fill="none" d="M0 0h24v24H0z"/><path d="M12 12.586l4.243 4.242-1.415 1.415L13 16.415V22h-2v-5.587l-1.828 1.83-1.415-1.415L12 12.586zM12 2a7.001 7.001 0 0 1 6.954 6.194 5.5 5.5 0 0 1-.953 10.784v-2.014a3.5 3.5 0 1 0-1.112-6.91 5 5 0 1 0-9.777 0 3.5 3.5 0 0 0-1.292 6.88l.18.03v2.014a5.5 5.5 0 0 1-.954-10.784A7 7 0 0 1 12 2z"/></symbol><symbol viewBox="0 0 24 24" id="map-pin-5-line"><path fill="none" d="M0 0h24v24H0z"/><path d="M12 18.485l4.243-4.242a6 6 0 1 0-8.486 0L12 18.485zm5.657-2.828L12 21.314l-5.657-5.657a8 8 0 1 1 11.314 0zM5 22h14v2H5v-2z"/></symbol><symbol viewBox="0 0 24 24" id="map-pin-line"><path fill="none" d="M0 0h24v24H0z"/><path d="M12 20.9l4.95-4.95a7 7 0 1 0-9.9 0L12 20.9zm0 2.828l-6.364-6.364a9 9 0 1 1 12.728 0L12 23.728zM12 13a2 2 0 1 0 0-4 2 2 0 0 0 0 4zm0 2a4 4 0 1 1 0-8 4 4 0 0 1 0 8z"/></symbol><symbol viewBox="0 0 24 24" id="map-pin-3-fill"><path fill="none" d="M0 0h24v24H0z"/><path d="M11 19.945A9.001 9.001 0 0 1 12 2a9 9 0 0 1 1 17.945V24h-2v-4.055z"/></symbol><symbol viewBox="0 0 24 24" id="lock-2-line"><path fill="none" d="M0 0h24v24H0z"/><path d="M6 8V7a6 6 0 1 1 12 0v1h2a1 1 0 0 1 1 1v12a1 1 0 0 1-1 1H4a1 1 0 0 1-1-1V9a1 1 0 0 1 1-1h2zm13 2H5v10h14V10zm-8 5.732a2 2 0 1 1 2 0V18h-2v-2.268zM8 8h8V7a4 4 0 1 0-8 0v1z"/></symbol><symbol viewBox="0 0 24 24" id="eye-line"><path fill="none" d="M0 0h24v24H0z"/><path d="M12 3c5.392 0 9.878 3.88 10.819 9-.94 5.12-5.427 9-10.819 9-5.392 0-9.878-3.88-10.819-9C2.121 6.88 6.608 3 12 3zm0 16a9.005 9.005 0 0 0 8.777-7 9.005 9.005 0 0 0-17.554 0A9.005 9.005 0 0 0 12 19zm0-2.5a4.5 4.5 0 1 1 0-9 4.5 4.5 0 0 1 0 9zm0-2a2.5 2.5 0 1 0 0-5 2.5 2.5 0 0 0 0 5z"/></symbol><symbol viewBox="0 0 24 24" id="eye-off-line"><path fill="none" d="M0 0h24v24H0z"/><path d="M17.882 19.297A10.949 10.949 0 0 1 12 21c-5.392 0-9.878-3.88-10.819-9a10.982 10.982 0 0 1 3.34-6.066L1.392 2.808l1.415-1.415 19.799 19.8-1.415 1.414-3.31-3.31zM5.935 7.35A8.965 8.965 0 0 0 3.223 12a9.005 9.005 0 0 0 13.201 5.838l-2.028-2.028A4.5 4.5 0 0 1 8.19 9.604L5.935 7.35zm6.979 6.978l-3.242-3.242a2.5 2.5 0 0 0 3.241 3.241zm7.893 2.264l-1.431-1.43A8.935 8.935 0 0 0 20.777 12 9.005 9.005 0 0 0 9.552 5.338L7.974 3.76C9.221 3.27 10.58 3 12 3c5.392 0 9.878 3.88 10.819 9a10.947 10.947 0 0 1-2.012 4.592zm-9.084-9.084a4.5 4.5 0 0 1 4.769 4.769l-4.77-4.769z"/></symbol><symbol viewBox="0 0 24 24" id="search-line"><path fill="none" d="M0 0h24v24H0z"/><path d="M18.031 16.617l4.283 4.282-1.415 1.415-4.282-4.283A8.96 8.96 0 0 1 11 20c-4.968 0-9-4.032-9-9s4.032-9 9-9 9 4.032 9 9a8.96 8.96 0 0 1-1.969 5.617zm-2.006-.742A6.977 6.977 0 0 0 18 11c0-3.868-3.133-7-7-7-3.868 0-7 3.132-7 7 0 3.867 3.132 7 7 7a6.977 6.977 0 0 0 4.875-1.975l.15-.15z"/></symbol><symbol viewBox="0 0 24 24" id="search-2-line"><path fill="none" d="M0 0h24v24H0z"/><path d="M11 2c4.968 0 9 4.032 9 9s-4.032 9-9 9-9-4.032-9-9 4.032-9 9-9zm0 16c3.867 0 7-3.133 7-7 0-3.868-3.133-7-7-7-3.868 0-7 3.132-7 7 0 3.867 3.132 7 7 7zm8.485.071l2.829 2.828-1.415 1.415-2.828-2.829 1.414-1.414z"/></symbol><symbol viewBox="0 0 24 24" id="dashboard-3-line"><path fill="none" d="M0 0H24V24H0z"/><path d="M12 2c5.523 0 10 4.477 10 10s-4.477 10-10 10S2 17.523 2 12 6.477 2 12 2zm0 2c-4.418 0-8 3.582-8 8s3.582 8 8 8 8-3.582 8-8-3.582-8-8-8zm3.833 3.337c.237-.166.559-.138.763.067.204.204.23.526.063.76-2.18 3.046-3.38 4.678-3.598 4.897-.586.585-1.536.585-2.122 0-.585-.586-.585-1.536 0-2.122.374-.373 2.005-1.574 4.894-3.602zM17.5 11c.552 0 1 .448 1 1s-.448 1-1 1-1-.448-1-1 .448-1 1-1zm-11 0c.552 0 1 .448 1 1s-.448 1-1 1-1-.448-1-1 .448-1 1-1zm2.318-3.596c.39.39.39 1.023 0 1.414-.39.39-1.024.39-1.414 0-.39-.39-.39-1.024 0-1.414.39-.39 1.023-.39 1.414 0zM12 5.5c.552 0 1 .448 1 1s-.448 1-1 1-1-.448-1-1 .448-1 1-1z"/></symbol><symbol viewBox="0 0 24 24" id="calendar-2-line"><path fill="none" d="M0 0h24v24H0z"/><path d="M17 3h4a1 1 0 0 1 1 1v16a1 1 0 0 1-1 1H3a1 1 0 0 1-1-1V4a1 1 0 0 1 1-1h4V1h2v2h6V1h2v2zm3 8H4v8h16v-8zm-5-6H9v2H7V5H4v4h16V5h-3v2h-2V5zm-9 8h2v2H6v-2zm5 0h2v2h-2v-2zm5 0h2v2h-2v-2z"/></symbol><symbol viewBox="0 0 24 24" id="group-line"><path fill="none" d="M0 0h24v24H0z"/><path d="M2 22a8 8 0 1 1 16 0h-2a6 6 0 1 0-12 0H2zm8-9c-3.315 0-6-2.685-6-6s2.685-6 6-6 6 2.685 6 6-2.685 6-6 6zm0-2c2.21 0 4-1.79 4-4s-1.79-4-4-4-4 1.79-4 4 1.79 4 4 4zm8.284 3.703A8.002 8.002 0 0 1 23 22h-2a6.001 6.001 0 0 0-3.537-5.473l.82-1.824zm-.688-11.29A5.5 5.5 0 0 1 21 8.5a5.499 5.499 0 0 1-5 5.478v-2.013a3.5 3.5 0 0 0 1.041-6.609l.555-1.943z"/></symbol><symbol viewBox="0 0 24 24" id="discuss-line"><path fill="none" d="M0 0h24v24H0z"/><path d="M14 22.5L11.2 19H6a1 1 0 0 1-1-1V7.103a1 1 0 0 1 1-1h16a1 1 0 0 1 1 1V18a1 1 0 0 1-1 1h-5.2L14 22.5zm1.839-5.5H21V8.103H7V17H12.161L14 19.298 15.839 17zM2 2h17v2H3v11H1V3a1 1 0 0 1 1-1z"/></symbol><symbol viewBox="0 0 24 24" id="user-2-line"><path fill="none" d="M0 0h24v24H0z"/><path d="M4 22a8 8 0 1 1 16 0H4zm9-5.917V20h4.659A6.009 6.009 0 0 0 13 16.083zM11 20v-3.917A6.009 6.009 0 0 0 6.341 20H11zm1-7c-3.315 0-6-2.685-6-6s2.685-6 6-6 6 2.685 6 6-2.685 6-6 6zm0-2c2.21 0 4-1.79 4-4s-1.79-4-4-4-4 1.79-4 4 1.79 4 4 4z"/></symbol><symbol viewBox="0 0 24 24" id="building-4-line"><path fill="none" d="M0 0h24v24H0z"/><path d="M21 20h2v2H1v-2h2V3a1 1 0 0 1 1-1h16a1 1 0 0 1 1 1v17zm-2 0V4H5v16h14zM8 11h3v2H8v-2zm0-4h3v2H8V7zm0 8h3v2H8v-2zm5 0h3v2h-3v-2zm0-4h3v2h-3v-2zm0-4h3v2h-3V7z"/></symbol><symbol viewBox="0 0 24 24" id="settings-line"><path fill="none" d="M0 0h24v24H0z"/><path d="M12 1l9.5 5.5v11L12 23l-9.5-5.5v-11L12 1zm0 2.311L4.5 7.653v8.694l7.5 4.342 7.5-4.342V7.653L12 3.311zM12 16a4 4 0 1 1 0-8 4 4 0 0 1 0 8zm0-2a2 2 0 1 0 0-4 2 2 0 0 0 0 4z"/></symbol><symbol viewBox="0 0 24 24" id="arrow-down-s-line"><path fill="none" d="M0 0h24v24H0z"/><path d="M12 13.172l4.95-4.95 1.414 1.414L12 16 5.636 9.636 7.05 8.222z"/></symbol><symbol viewBox="0 0 24 24" id="arrow-up-s-line"><path fill="none" d="M0 0h24v24H0z"/><path d="M12 10.828l-4.95 4.95-1.414-1.414L12 8l6.364 6.364-1.414 1.414z"/></symbol><symbol viewBox="0 0 24 24" id="arrow-right-s-line"><path fill="none" d="M0 0h24v24H0z"/><path d="M13.172 12l-4.95-4.95 1.414-1.414L16 12l-6.364 6.364-1.414-1.414z"/></symbol><symbol viewBox="0 0 24 24" id="arrow-left-s-line"><path fill="none" d="M0 0h24v24H0z"/><path d="M10.828 12l4.95 4.95-1.414 1.414L8 12l6.364-6.364 1.414 1.414z"/></symbol><symbol viewBox="0 0 24 24" id="arrow-left-line"><path fill="none" d="M0 0h24v24H0z"/><path d="M7.828 11H20v2H7.828l5.364 5.364-1.414 1.414L4 12l7.778-7.778 1.414 1.414z"/></symbol><symbol viewBox="0 0 24 24" id="list-check-2"><path fill="none" d="M0 0h24v24H0z"/><path d="M11 4h10v2H11V4zm0 4h6v2h-6V8zm0 6h10v2H11v-2zm0 4h6v2h-6v-2zM3 4h6v6H3V4zm2 2v2h2V6H5zm-2 8h6v6H3v-6zm2 2v2h2v-2H5z"/></symbol><symbol viewBox="0 0 24 24" id="add-line"><path fill="none" d="M0 0h24v24H0z"/><path d="M11 11V5h2v6h6v2h-6v6h-2v-6H5v-2z"/></symbol><symbol viewBox="0 0 24 24" id="notification-2-line"><path fill="none" d="M0 0h24v24H0z"/><path d="M22 20H2v-2h1v-6.969C3 6.043 7.03 2 12 2s9 4.043 9 9.031V18h1v2zM5 18h14v-6.969C19 7.148 15.866 4 12 4s-7 3.148-7 7.031V18zm4.5 3h5a2.5 2.5 0 1 1-5 0z"/></symbol><symbol viewBox="0 0 24 24" id="checkbox-circle-line"><path fill="none" d="M0 0h24v24H0z"/><path d="M12 22C6.477 22 2 17.523 2 12S6.477 2 12 2s10 4.477 10 10-4.477 10-10 10zm0-2a8 8 0 1 0 0-16 8 8 0 0 0 0 16zm-.997-4L6.76 11.757l1.414-1.414 2.829 2.829 5.656-5.657 1.415 1.414L11.003 16z"/></symbol><symbol viewBox="0 0 24 24" id="checkbox-circle-fill"><path fill="none" d="M0 0h24v24H0z"/><path d="M12 22C6.477 22 2 17.523 2 12S6.477 2 12 2s10 4.477 10 10-4.477 10-10 10zm-.997-6l7.07-7.071-1.414-1.414-5.656 5.657-2.829-2.829-1.414 1.414L11.003 16z"/></symbol><symbol viewBox="0 0 24 24" id="close-circle-fill"><path fill="none" d="M0 0h24v24H0z"/><path d="M12 22C6.477 22 2 17.523 2 12S6.477 2 12 2s10 4.477 10 10-4.477 10-10 10zm0-11.414L9.172 7.757 7.757 9.172 10.586 12l-2.829 2.828 1.415 1.415L12 13.414l2.828 2.829 1.415-1.415L13.414 12l2.829-2.828-1.415-1.415L12 10.586z"/></symbol><symbol viewBox="0 0 24 24" id="more-fill"><path fill="none" d="M0 0h24v24H0z"/><path d="M5 10c-1.1 0-2 .9-2 2s.9 2 2 2 2-.9 2-2-.9-2-2-2zm14 0c-1.1 0-2 .9-2 2s.9 2 2 2 2-.9 2-2-.9-2-2-2zm-7 0c-1.1 0-2 .9-2 2s.9 2 2 2 2-.9 2-2-.9-2-2-2z"/></symbol><symbol viewBox="0 0 24 24" id="checkbox-blank-line"><path fill="none" d="M0 0h24v24H0z"/><path d="M4 3h16a1 1 0 0 1 1 1v16a1 1 0 0 1-1 1H4a1 1 0 0 1-1-1V4a1 1 0 0 1 1-1zm1 2v14h14V5H5z"/></symbol><symbol viewBox="0 0 24 24" id="checkbox-fill"><path fill="none" d="M0 0h24v24H0z"/><path d="M4 3h16a1 1 0 0 1 1 1v16a1 1 0 0 1-1 1H4a1 1 0 0 1-1-1V4a1 1 0 0 1 1-1zm7.003 13l7.07-7.071-1.414-1.414-5.656 5.657-2.829-2.829-1.414 1.414L11.003 16z"/></symbol><symbol viewBox="0 0 24 24" id="arrow-down-s-fill"><path fill="none" d="M0 0h24v24H0z"/><path d="M12 16l-6-6h12z"/></symbol><symbol viewBox="0 0 24 24" id="profile-line"><path fill="none" d="M0 0h24v24H0z"/><path d="M2 3.993A1 1 0 0 1 2.992 3h18.016c.548 0 .992.445.992.993v16.014a1 1 0 0 1-.992.993H2.992A.993.993 0 0 1 2 20.007V3.993zM4 5v14h16V5H4zm2 2h6v6H6V7zm2 2v2h2V9H8zm-2 6h12v2H6v-2zm8-8h4v2h-4V7zm0 4h4v2h-4v-2z"/></symbol><symbol viewBox="0 0 24 24" id="health-book-line"><path fill="none" d="M0 0H24V24H0z"/><path d="M20 2c.552 0 1 .448 1 1v18c0 .552-.448 1-1 1H6c-.552 0-1-.448-1-1v-2H3v-2h2v-2H3v-2h2v-2H3V9h2V7H3V5h2V3c0-.552.448-1 1-1h14zm-1 2H7v16h12V4zm-5 4v3h3v2h-3.001L14 16h-2l-.001-3H9v-2h3V8h2z"/></symbol><symbol viewBox="0 0 24 24" id="history-line"><path fill="none" d="M0 0H24V24H0z"/><path d="M12 2c5.523 0 10 4.477 10 10s-4.477 10-10 10S2 17.523 2 12h2c0 4.418 3.582 8 8 8s8-3.582 8-8-3.582-8-8-8C9.25 4 6.824 5.387 5.385 7.5H8v2H2v-6h2V6c1.824-2.43 4.729-4 8-4zm1 5v4.585l3.243 3.243-1.415 1.415L11 12.413V7h2z"/></symbol><symbol viewBox="0 0 24 24" id="file-text-line"><path fill="none" d="M0 0h24v24H0z"/><path d="M21 8v12.993A1 1 0 0 1 20.007 22H3.993A.993.993 0 0 1 3 21.008V2.992C3 2.455 3.449 2 4.002 2h10.995L21 8zm-2 1h-5V4H5v16h14V9zM8 7h3v2H8V7zm0 4h8v2H8v-2zm0 4h8v2H8v-2z"/></symbol><symbol viewBox="0 0 24 24" id="attachment-2"><path fill="none" d="M0 0h24v24H0z"/><path d="M14.828 7.757l-5.656 5.657a1 1 0 1 0 1.414 1.414l5.657-5.656A3 3 0 1 0 12 4.929l-5.657 5.657a5 5 0 1 0 7.071 7.07L19.071 12l1.414 1.414-5.657 5.657a7 7 0 1 1-9.9-9.9l5.658-5.656a5 5 0 0 1 7.07 7.07L12 16.244A3 3 0 1 1 7.757 12l5.657-5.657 1.414 1.414z"/></symbol><symbol viewBox="0 0 24 24" id="capsule-line"><path fill="none" d="M0 0H24V24H0z"/><path d="M19.778 4.222c2.343 2.343 2.343 6.142 0 8.485l-7.07 7.071c-2.344 2.343-6.143 2.343-8.486 0-2.343-2.343-2.343-6.142 0-8.485l7.07-7.071c2.344-2.343 6.143-2.343 8.486 0zm-5.656 11.313L8.465 9.878l-2.829 2.83c-1.562 1.561-1.562 4.094 0 5.656 1.562 1.562 4.095 1.562 5.657 0l2.829-2.83zm4.242-9.899c-1.562-1.562-4.095-1.562-5.657 0L9.88 8.464l5.657 5.657 2.828-2.828c1.562-1.562 1.562-4.095 0-5.657z"/></symbol><symbol viewBox="0 0 24 24" id="user-line"><path fill="none" d="M0 0h24v24H0z"/><path d="M4 22a8 8 0 1 1 16 0h-2a6 6 0 1 0-12 0H4zm8-9c-3.315 0-6-2.685-6-6s2.685-6 6-6 6 2.685 6 6-2.685 6-6 6zm0-2c2.21 0 4-1.79 4-4s-1.79-4-4-4-4 1.79-4 4 1.79 4 4 4z"/></symbol><symbol viewBox="0 0 24 24" id="mail-line"><path fill="none" d="M0 0h24v24H0z"/><path d="M3 3h18a1 1 0 0 1 1 1v16a1 1 0 0 1-1 1H3a1 1 0 0 1-1-1V4a1 1 0 0 1 1-1zm17 4.238l-7.928 7.1L4 7.216V19h16V7.238zM4.511 5l7.55 6.662L19.502 5H4.511z"/></symbol><symbol viewBox="0 0 24 24" id="genderless-line"><path fill="none" d="M0 0h24v24H0z"/><path d="M13 7.066A7.501 7.501 0 0 1 12 22a7.5 7.5 0 0 1-1-14.934V1h2v6.066zM12 20a5.5 5.5 0 1 0 0-11 5.5 5.5 0 0 0 0 11z"/></symbol><symbol viewBox="0 0 24 24" id="women-line"><path fill="none" d="M0 0h24v24H0z"/><path d="M11 15.934A7.501 7.501 0 0 1 12 1a7.5 7.5 0 0 1 1 14.934V18h5v2h-5v4h-2v-4H6v-2h5v-2.066zM12 14a5.5 5.5 0 1 0 0-11 5.5 5.5 0 0 0 0 11z"/></symbol><symbol viewBox="0 0 24 24" id="men-line"><path fill="none" d="M0 0h24v24H0z"/><path d="M15.05 8.537L18.585 5H14V3h8v8h-2V6.414l-3.537 3.537a7.5 7.5 0 1 1-1.414-1.414zM10.5 20a5.5 5.5 0 1 0 0-11 5.5 5.5 0 0 0 0 11z"/></symbol><symbol viewBox="0 0 24 24" id="road-map-line"><path fill="none" d="M0 0h24v24H0z"/><path d="M4 6.143v12.824l5.065-2.17 6 3L20 17.68V4.857l1.303-.558a.5.5 0 0 1 .697.46V19l-7 3-6-3-6.303 2.701a.5.5 0 0 1-.697-.46V7l2-.857zm12.243 5.1L12 15.485l-4.243-4.242a6 6 0 1 1 8.486 0zM12 12.657l2.828-2.829a4 4 0 1 0-5.656 0L12 12.657z"/></symbol><symbol viewBox="0 0 24 24" id="heart-line"><path fill="none" d="M0 0H24V24H0z"/><path d="M12.001 4.529c2.349-2.109 5.979-2.039 8.242.228 2.262 2.268 2.34 5.88.236 8.236l-8.48 8.492-8.478-8.492c-2.104-2.356-2.025-5.974.236-8.236 2.265-2.264 5.888-2.34 8.244-.228zm6.826 1.641c-1.5-1.502-3.92-1.563-5.49-.153l-1.335 1.198-1.336-1.197c-1.575-1.412-3.99-1.35-5.494.154-1.49 1.49-1.565 3.875-.192 5.451L12 18.654l7.02-7.03c1.374-1.577 1.299-3.959-.193-5.454z"/></symbol><symbol viewBox="0 0 24 24" id="heart-pulse-line"><path fill="none" d="M0 0H24V24H0z"/><path d="M16.5 3C19.538 3 22 5.5 22 9c0 7-7.5 11-10 12.5-1.977-1.186-7.083-3.937-9.131-8.499L1 13v-2h1.21C2.074 10.364 2 9.698 2 9c0-3.5 2.5-6 5.5-6C9.36 3 11 4 12 5c1-1 2.64-2 4.5-2zm0 2c-1.076 0-2.24.57-3.086 1.414L12 7.828l-1.414-1.414C9.74 5.57 8.576 5 7.5 5 5.56 5 4 6.656 4 9c0 .685.09 1.352.267 2h2.167L8.5 7.556l3 5L12.434 11H17v2h-3.434L11.5 16.444l-3-5L7.566 13H5.108c.79 1.374 1.985 2.668 3.537 3.903.745.592 1.54 1.145 2.421 1.7.299.189.595.37.934.572.339-.202.635-.383.934-.571.881-.556 1.676-1.109 2.42-1.701C18.335 14.533 20 11.943 20 9c0-2.36-1.537-4-3.5-4z"/></symbol><symbol viewBox="0 0 24 24" id="nurse-line"><path fill="none" d="M0 0H24V24H0z"/><path d="M12 15c4.08 0 7.446 3.054 7.938 7H4.062c.492-3.946 3.858-7 7.938-7zm-1.813 2.28C8.753 17.734 7.546 18.713 6.8 20H12l-1.813-2.72zm3.627 0L12 20h5.199c-.745-1.287-1.952-2.266-3.385-2.72zM18 2v6c0 3.314-2.686 6-6 6s-6-2.686-6-6V2h12zM8 8c0 2.21 1.79 4 4 4s4-1.79 4-4H8zm8-4H8v2h8V4z"/></symbol><symbol viewBox="0 0 24 24" id="dossier-line"><path fill="none" d="M0 0H24V24H0z"/><path d="M17 2v2h3c.552 0 1 .448 1 1v16c0 .552-.448 1-1 1H4c-.552 0-1-.448-1-1V5c0-.552.448-1 1-1h3V2h10zM7 6H5v14h14V6h-2v2H7V6zm6 5v2h2v2h-2.001L13 17h-2l-.001-2H9v-2h2v-2h2zm2-7H9v2h6V4z"/></symbol><symbol viewBox="0 0 24 24" id="first-aid-kit-line"><path fill="none" d="M0 0H24V24H0z"/><path d="M16 1c.552 0 1 .448 1 1v3h4c.552 0 1 .448 1 1v14c0 .552-.448 1-1 1H3c-.552 0-1-.448-1-1V6c0-.552.448-1 1-1h4V2c0-.552.448-1 1-1h8zm4 6H4v12h16V7zm-7 2v3h3v2h-3.001L13 17h-2l-.001-3H8v-2h3V9h2zm2-6H9v2h6V3z"/></symbol><symbol viewBox="0 0 24 24" id="microscope-line"><path fill="none" d="M0 0H24V24H0z"/><path d="M13.196 2.268l3.25 5.63c.276.477.112 1.089-.366 1.365l-1.3.75 1.001 1.732-1.732 1-1-1.733-1.299.751c-.478.276-1.09.112-1.366-.366L8.546 8.215C6.494 8.837 5 10.745 5 13c0 .625.115 1.224.324 1.776C6.1 14.284 7.016 14 8 14c1.684 0 3.174.833 4.08 2.109l7.688-4.439 1 1.732-7.878 4.549c.072.338.11.69.11 1.049 0 .343-.034.677-.1 1H21v2l-17 .001c-.628-.836-1-1.875-1-3.001 0-1.007.298-1.945.81-2.73C3.293 15.295 3 14.182 3 13c0-2.995 1.881-5.551 4.527-6.55l-.393-.682c-.552-.957-.225-2.18.732-2.732l2.598-1.5c.957-.552 2.18-.225 2.732.732zM8 16c-1.657 0-3 1.343-3 3 0 .35.06.687.17 1h5.66c.11-.313.17-.65.17-1 0-1.657-1.343-3-3-3zm3.464-12.732l-2.598 1.5 2.75 4.763 2.598-1.5-2.75-4.763z"/></symbol><symbol viewBox="0 0 24 24" id="stethoscope-line"><path fill="none" d="M0 0H24V24H0z"/><path d="M8 3v2H6v4c0 2.21 1.79 4 4 4s4-1.79 4-4V5h-2V3h3c.552 0 1 .448 1 1v5c0 2.973-2.162 5.44-5 5.917V16.5c0 1.933 1.567 3.5 3.5 3.5 1.497 0 2.775-.94 3.275-2.263C16.728 17.27 16 16.22 16 15c0-1.657 1.343-3 3-3s3 1.343 3 3c0 1.371-.92 2.527-2.176 2.885C19.21 20.252 17.059 22 14.5 22 11.462 22 9 19.538 9 16.5v-1.583C6.162 14.441 4 11.973 4 9V4c0-.552.448-1 1-1h3zm11 11c-.552 0-1 .448-1 1s.448 1 1 1 1-.448 1-1-.448-1-1-1z"/></symbol><symbol viewBox="0 0 24 24" id="syringe-line"><path fill="none" d="M0 0H24V24H0z"/><path d="M21.678 7.98l-1.415 1.413-2.12-2.12-2.122 2.12 3.535 3.536-1.414 1.414-.707-.707L11.071 20H5.414l-2.121 2.121-1.414-1.414L4 18.586v-5.657l6.364-6.364-.707-.707 1.414-1.414 3.536 3.535 2.12-2.121-2.12-2.121 1.414-1.415 5.657 5.657zm-5.657 4.242l-4.243-4.243-1.414 1.414 2.121 2.122-1.414 1.414-2.121-2.121-1.414 1.414 2.12 2.121-1.413 1.414-2.122-2.121-.121.121V18h4.243l5.778-5.778z"/></symbol><symbol viewBox="0 0 24 24" id="save-line"><path fill="none" d="M0 0h24v24H0z"/><path d="M7 19v-6h10v6h2V7.828L16.172 5H5v14h2zM4 3h13l4 4v13a1 1 0 0 1-1 1H4a1 1 0 0 1-1-1V4a1 1 0 0 1 1-1zm5 12v4h6v-4H9z"/></symbol><symbol viewBox="0 0 24 24" id="calendar-event-line"><path fill="none" d="M0 0h24v24H0z"/><path d="M17 3h4a1 1 0 0 1 1 1v16a1 1 0 0 1-1 1H3a1 1 0 0 1-1-1V4a1 1 0 0 1 1-1h4V1h2v2h6V1h2v2zm3 6V5h-3v2h-2V5H9v2H7V5H4v4h16zm0 2H4v8h16v-8zM6 13h5v4H6v-4z"/></symbol><symbol viewBox="0 0 24 24" id="bank-card-line"><path fill="none" d="M0 0h24v24H0z"/><path d="M3 3h18a1 1 0 0 1 1 1v16a1 1 0 0 1-1 1H3a1 1 0 0 1-1-1V4a1 1 0 0 1 1-1zm17 8H4v8h16v-8zm0-2V5H4v4h16zm-6 6h4v2h-4v-2z"/></symbol><symbol viewBox="0 0 24 24" id="shield-user-line"><path fill="none" d="M0 0h24v24H0z"/><path d="M3.783 2.826L12 1l8.217 1.826a1 1 0 0 1 .783.976v9.987a6 6 0 0 1-2.672 4.992L12 23l-6.328-4.219A6 6 0 0 1 3 13.79V3.802a1 1 0 0 1 .783-.976zM5 4.604v9.185a4 4 0 0 0 1.781 3.328L12 20.597l5.219-3.48A4 4 0 0 0 19 13.79V4.604L12 3.05 5 4.604zM12 11a2.5 2.5 0 1 1 0-5 2.5 2.5 0 0 1 0 5zm-4.473 5a4.5 4.5 0 0 1 8.946 0H7.527z"/></symbol><symbol viewBox="0 0 24 24" id="delete-bin-5-line"><path fill="none" d="M0 0h24v24H0z"/><path d="M4 8h16v13a1 1 0 0 1-1 1H5a1 1 0 0 1-1-1V8zm2 2v10h12V10H6zm3 2h2v6H9v-6zm4 0h2v6h-2v-6zM7 5V3a1 1 0 0 1 1-1h8a1 1 0 0 1 1 1v2h5v2H2V5h5zm2-1v1h6V4H9z"/></symbol><symbol viewBox="0 0 24 24" id="delete-bin-7-line"><path fill="none" d="M0 0h24v24H0z"/><path d="M17 6h5v2h-2v13a1 1 0 0 1-1 1H5a1 1 0 0 1-1-1V8H2V6h5V3a1 1 0 0 1 1-1h8a1 1 0 0 1 1 1v3zm1 2H6v12h12V8zM9 4v2h6V4H9z"/></symbol><symbol viewBox="0 0 24 24" id="close-line"><path fill="none" d="M0 0h24v24H0z"/><path d="M12 10.586l4.95-4.95 1.414 1.414-4.95 4.95 4.95 4.95-1.414 1.414-4.95-4.95-4.95 4.95-1.414-1.414 4.95-4.95-4.95-4.95L7.05 5.636z"/></symbol><symbol viewBox="0 0 24 24" id="user-add-line"><path fill="none" d="M0 0h24v24H0z"/><path d="M14 14.252v2.09A6 6 0 0 0 6 22l-2-.001a8 8 0 0 1 10-7.748zM12 13c-3.315 0-6-2.685-6-6s2.685-6 6-6 6 2.685 6 6-2.685 6-6 6zm0-2c2.21 0 4-1.79 4-4s-1.79-4-4-4-4 1.79-4 4 1.79 4 4 4zm6 6v-3h2v3h3v2h-3v3h-2v-3h-3v-2h3z"/></symbol><symbol viewBox="0 0 24 24" id="user-shared-line"><path fill="none" d="M0 0h24v24H0z"/><path d="M14 14.252v2.09A6 6 0 0 0 6 22l-2-.001a8 8 0 0 1 10-7.748zM12 13c-3.315 0-6-2.685-6-6s2.685-6 6-6 6 2.685 6 6-2.685 6-6 6zm0-2c2.21 0 4-1.79 4-4s-1.79-4-4-4-4 1.79-4 4 1.79 4 4 4zm6.586 6l-1.829-1.828 1.415-1.415L22.414 18l-4.242 4.243-1.415-1.415L18.586 19H15v-2h3.586z"/></symbol><symbol viewBox="0 0 24 24" id="user-received-line"><path fill="none" d="M0 0h24v24H0z"/><path d="M14 14.252v2.09A6 6 0 0 0 6 22l-2-.001a8 8 0 0 1 10-7.748zM12 13c-3.315 0-6-2.685-6-6s2.685-6 6-6 6 2.685 6 6-2.685 6-6 6zm0-2c2.21 0 4-1.79 4-4s-1.79-4-4-4-4 1.79-4 4 1.79 4 4 4zm7.418 6h3.586v2h-3.586l1.829 1.828-1.414 1.415L15.59 18l4.243-4.243 1.414 1.415L19.418 17z"/></symbol><symbol viewBox="0 0 24 24" id="user-settings-line"><path fill="none" d="M0 0h24v24H0z"/><path d="M12 14v2a6 6 0 0 0-6 6H4a8 8 0 0 1 8-8zm0-1c-3.315 0-6-2.685-6-6s2.685-6 6-6 6 2.685 6 6-2.685 6-6 6zm0-2c2.21 0 4-1.79 4-4s-1.79-4-4-4-4 1.79-4 4 1.79 4 4 4zm2.595 7.812a3.51 3.51 0 0 1 0-1.623l-.992-.573 1-1.732.992.573A3.496 3.496 0 0 1 17 14.645V13.5h2v1.145c.532.158 1.012.44 1.405.812l.992-.573 1 1.732-.992.573a3.51 3.51 0 0 1 0 1.622l.992.573-1 1.732-.992-.573a3.496 3.496 0 0 1-1.405.812V22.5h-2v-1.145a3.496 3.496 0 0 1-1.405-.812l-.992.573-1-1.732.992-.572zM18 19.5a1.5 1.5 0 1 0 0-3 1.5 1.5 0 0 0 0 3z"/></symbol><symbol viewBox="0 0 24 24" id="user-star-line"><path fill="none" d="M0 0h24v24H0z"/><path d="M12 14v2a6 6 0 0 0-6 6H4a8 8 0 0 1 8-8zm0-1c-3.315 0-6-2.685-6-6s2.685-6 6-6 6 2.685 6 6-2.685 6-6 6zm0-2c2.21 0 4-1.79 4-4s-1.79-4-4-4-4 1.79-4 4 1.79 4 4 4zm6 10.5l-2.939 1.545.561-3.272-2.377-2.318 3.286-.478L18 14l1.47 2.977 3.285.478-2.377 2.318.56 3.272L18 21.5z"/></symbol><symbol viewBox="0 0 24 24" id="user-heart-line"><path fill="none" d="M0 0h24v24H0z"/><path d="M17.841 15.659l.176.177.178-.177a2.25 2.25 0 0 1 3.182 3.182l-3.36 3.359-3.358-3.359a2.25 2.25 0 0 1 3.182-3.182zM12 14v2a6 6 0 0 0-6 6H4a8 8 0 0 1 7.75-7.996L12 14zm0-13c3.315 0 6 2.685 6 6a5.998 5.998 0 0 1-5.775 5.996L12 13c-3.315 0-6-2.685-6-6a5.998 5.998 0 0 1 5.775-5.996L12 1zm0 2C9.79 3 8 4.79 8 7s1.79 4 4 4 4-1.79 4-4-1.79-4-4-4z"/></symbol><symbol viewBox="0 0 24 24" id="user-search-line"><path fill="none" d="M0 0h24v24H0z"/><path d="M12 14v2a6 6 0 0 0-6 6H4a8 8 0 0 1 8-8zm0-1c-3.315 0-6-2.685-6-6s2.685-6 6-6 6 2.685 6 6-2.685 6-6 6zm0-2c2.21 0 4-1.79 4-4s-1.79-4-4-4-4 1.79-4 4 1.79 4 4 4zm9.446 9.032l1.504 1.504-1.414 1.414-1.504-1.504a4 4 0 1 1 1.414-1.414zM18 20a2 2 0 1 0 0-4 2 2 0 0 0 0 4z"/></symbol><symbol viewBox="0 0 24 24" id="chat-2-line"><path fill="none" d="M0 0h24v24H0z"/><path d="M14.45 19L12 22.5 9.55 19H3a1 1 0 0 1-1-1V4a1 1 0 0 1 1-1h18a1 1 0 0 1 1 1v14a1 1 0 0 1-1 1h-6.55zm-1.041-2H20V5H4v12h6.591L12 19.012 13.409 17z"/></symbol><symbol viewBox="0 0 24 24" id="ruler-line"><path fill="none" d="M0 0h24v24H0z"/><path d="M6.343 14.621L3.515 17.45l3.535 3.535L20.485 7.55 16.95 4.015l-2.122 2.121 1.415 1.414-1.415 1.414-1.414-1.414-2.121 2.122 2.121 2.12L12 13.208l-2.121-2.121-2.122 2.121 1.415 1.414-1.415 1.415-1.414-1.415zM17.657 1.893l4.95 4.95a1 1 0 0 1 0 1.414l-14.85 14.85a1 1 0 0 1-1.414 0l-4.95-4.95a1 1 0 0 1 0-1.414l14.85-14.85a1 1 0 0 1 1.414 0z"/></symbol><symbol viewBox="0 0 24 24" id="scales-2-line"><path fill="none" d="M0 0H24V24H0z"/><path d="M6 2c0 .513.49 1 1 1h10c.513 0 1-.49 1-1h2c0 1.657-1.343 3-3 3h-4l.001 2.062C16.947 7.555 20 10.921 20 15v6c0 .552-.448 1-1 1H5c-.552 0-1-.448-1-1v-6c0-4.08 3.054-7.446 7-7.938V5H7C5.34 5 4 3.66 4 2h2zm6 7c-3.238 0-6 2.76-6 6v5h12v-5c0-3.238-2.762-6-6-6zm0 2c.742 0 1.436.202 2.032.554l-2.74 2.739c-.39.39-.39 1.024 0 1.414.361.36.929.388 1.32.083l.095-.083 2.74-2.739c.351.596.553 1.29.553 2.032 0 2.21-1.79 4-4 4s-4-1.79-4-4 1.79-4 4-4z"/></symbol><symbol viewBox="0 0 24 24" id="drop-line"><path fill="none" d="M0 0h24v24H0z"/><path d="M12 3.1L7.05 8.05a7 7 0 1 0 9.9 0L12 3.1zm0-2.828l6.364 6.364a9 9 0 1 1-12.728 0L12 .272z"/></symbol><symbol viewBox="0 0 24 24" id="goblet-line"><path fill="none" d="M0 0h24v24H0z"/><path d="M11 19v-5.111L3 5V3h18v2l-8 8.889V19h5v2H6v-2h5zM7.49 7h9.02l1.8-2H5.69l1.8 2zm1.8 2L12 12.01 14.71 9H9.29z"/></symbol><symbol viewBox="0 0 24 24" id="radio-button-line"><path fill="none" d="M0 0h24v24H0z"/><path d="M12 22C6.477 22 2 17.523 2 12S6.477 2 12 2s10 4.477 10 10-4.477 10-10 10zm0-2a8 8 0 1 0 0-16 8 8 0 0 0 0 16zm0-3a5 5 0 1 1 0-10 5 5 0 0 1 0 10z"/></symbol><symbol viewBox="0 0 24 24" id="checkbox-blank-circle-line"><path fill="none" d="M0 0h24v24H0z"/><path d="M12 22C6.477 22 2 17.523 2 12S6.477 2 12 2s10 4.477 10 10-4.477 10-10 10zm0-2a8 8 0 1 0 0-16 8 8 0 0 0 0 16z"/></symbol><symbol viewBox="0 0 24 24" id="add-circle-fill"><path fill="none" d="M0 0h24v24H0z"/><path d="M12 22C6.477 22 2 17.523 2 12S6.477 2 12 2s10 4.477 10 10-4.477 10-10 10zm-1-11H7v2h4v4h2v-4h4v-2h-4V7h-2v4z"/></symbol><symbol viewBox="0 0 24 24" id="hotel-bed-line"><path fill="none" d="M0 0h24v24H0z"/><path d="M22 11v9h-2v-3H4v3H2V4h2v10h8V7h6a4 4 0 0 1 4 4zm-2 3v-3a2 2 0 0 0-2-2h-4v5h6zM8 11a1 1 0 1 0 0-2 1 1 0 0 0 0 2zm0 2a3 3 0 1 1 0-6 3 3 0 0 1 0 6z"/></symbol><symbol viewBox="0 0 24 24" id="image-line"><path fill="none" d="M0 0h24v24H0z"/><path d="M4.828 21l-.02.02-.021-.02H2.992A.993.993 0 0 1 2 20.007V3.993A1 1 0 0 1 2.992 3h18.016c.548 0 .992.445.992.993v16.014a1 1 0 0 1-.992.993H4.828zM20 15V5H4v14L14 9l6 6zm0 2.828l-6-6L6.828 19H20v-1.172zM8 11a2 2 0 1 1 0-4 2 2 0 0 1 0 4z"/></symbol><symbol viewBox="0 0 24 24" id="message-line"><path fill="none" d="M0 0h24v24H0z"/><path d="M6.455 19L2 22.5V4a1 1 0 0 1 1-1h18a1 1 0 0 1 1 1v14a1 1 0 0 1-1 1H6.455zm-.692-2H20V5H4v13.385L5.763 17zM8 10h8v2H8v-2z"/></symbol><symbol viewBox="0 0 24 24" id="information-line"><path fill="none" d="M0 0h24v24H0z"/><path d="M12 22C6.477 22 2 17.523 2 12S6.477 2 12 2s10 4.477 10 10-4.477 10-10 10zm0-2a8 8 0 1 0 0-16 8 8 0 0 0 0 16zM11 7h2v2h-2V7zm0 4h2v6h-2v-6z"/></symbol><symbol viewBox="0 0 24 24" id="pencil-line"><path fill="none" d="M0 0h24v24H0z"/><path d="M15.728 9.686l-1.414-1.414L5 17.586V19h1.414l9.314-9.314zm1.414-1.414l1.414-1.414-1.414-1.414-1.414 1.414 1.414 1.414zM7.242 21H3v-4.243L16.435 3.322a1 1 0 0 1 1.414 0l2.829 2.829a1 1 0 0 1 0 1.414L7.243 21z"/></symbol><symbol viewBox="0 0 24 24" id="award-line"><path fill="none" d="M0 0h24v24H0z"/><path d="M17 15.245v6.872a.5.5 0 0 1-.757.429L12 20l-4.243 2.546a.5.5 0 0 1-.757-.43v-6.87a8 8 0 1 1 10 0zm-8 1.173v3.05l3-1.8 3 1.8v-3.05A7.978 7.978 0 0 1 12 17a7.978 7.978 0 0 1-3-.582zM12 15a6 6 0 1 0 0-12 6 6 0 0 0 0 12z"/></symbol><symbol viewBox="0 0 24 24" id="medal-line"><path fill="none" d="M0 0h24v24H0z"/><path d="M12 7a8 8 0 1 1 0 16 8 8 0 0 1 0-16zm0 2a6 6 0 1 0 0 12 6 6 0 0 0 0-12zm0 1.5l1.323 2.68 2.957.43-2.14 2.085.505 2.946L12 17.25l-2.645 1.39.505-2.945-2.14-2.086 2.957-.43L12 10.5zM18 2v3l-1.363 1.138A9.935 9.935 0 0 0 13 5.049L13 2 18 2zm-7-.001v3.05a9.935 9.935 0 0 0-3.636 1.088L6 5V2l5-.001z"/></symbol><symbol viewBox="0 0 24 24" id="medal-2-line"><path fill="none" d="M0 0h24v24H0z"/><path d="M12 8.5l2.116 5.088 5.492.44-4.184 3.584 1.278 5.36L12 20.1l-4.702 2.872 1.278-5.36-4.184-3.584 5.492-.44L12 8.5zm0 5.207l-.739 1.777-1.916.153 1.46 1.251-.447 1.871L12 17.756l1.641 1.003-.446-1.87 1.459-1.252-1.915-.153L12 13.707zM8 2v9H6V2h2zm10 0v9h-2V2h2zm-5 0v5h-2V2h2z"/></symbol><symbol viewBox="0 0 24 24" id="delete-bin-2-line"><path fill="none" d="M0 0h24v24H0z"/><path d="M17 6h5v2h-2v13a1 1 0 0 1-1 1H5a1 1 0 0 1-1-1V8H2V6h5V3a1 1 0 0 1 1-1h8a1 1 0 0 1 1 1v3zm1 2H6v12h12V8zm-4.586 6l1.768 1.768-1.414 1.414L12 15.414l-1.768 1.768-1.414-1.414L10.586 14l-1.768-1.768 1.414-1.414L12 12.586l1.768-1.768 1.414 1.414L13.414 14zM9 4v2h6V4H9z"/></symbol><symbol viewBox="0 0 24 24" id="delete-bin-line"><path fill="none" d="M0 0h24v24H0z"/><path d="M17 6h5v2h-2v13a1 1 0 0 1-1 1H5a1 1 0 0 1-1-1V8H2V6h5V3a1 1 0 0 1 1-1h8a1 1 0 0 1 1 1v3zm1 2H6v12h12V8zm-9 3h2v6H9v-6zm4 0h2v6h-2v-6zM9 4v2h6V4H9z"/></symbol><symbol viewBox="0 0 24 24" id="earth-line"><path fill="none" d="M0 0h24v24H0z"/><path d="M6.235 6.453a8 8 0 0 0 8.817 12.944c.115-.75-.137-1.47-.24-1.722-.23-.56-.988-1.517-2.253-2.844-.338-.355-.316-.628-.195-1.437l.013-.091c.082-.554.22-.882 2.085-1.178.948-.15 1.197.228 1.542.753l.116.172c.328.48.571.59.938.756.165.075.37.17.645.325.652.373.652.794.652 1.716v.105c0 .391-.038.735-.098 1.034a8.002 8.002 0 0 0-3.105-12.341c-.553.373-1.312.902-1.577 1.265-.135.185-.327 1.132-.95 1.21-.162.02-.381.006-.613-.009-.622-.04-1.472-.095-1.744.644-.173.468-.203 1.74.356 2.4.09.105.107.3.046.519-.08.287-.241.462-.292.498-.096-.056-.288-.279-.419-.43-.313-.365-.705-.82-1.211-.96-.184-.051-.386-.093-.583-.135-.549-.115-1.17-.246-1.315-.554-.106-.226-.105-.537-.105-.865 0-.417 0-.888-.204-1.345a1.276 1.276 0 0 0-.306-.43zM12 22C6.477 22 2 17.523 2 12S6.477 2 12 2s10 4.477 10 10-4.477 10-10 10z"/></symbol><symbol viewBox="0 0 24 24" id="navigation-line"><path fill="none" d="M0 0h24v24H0z"/><path d="M4.965 5.096l3.546 12.41 3.04-6.08 5.637-2.255L4.965 5.096zM2.899 2.3l18.806 6.268a.5.5 0 0 1 .028.939L13 13l-4.425 8.85a.5.5 0 0 1-.928-.086L2.26 2.911A.5.5 0 0 1 2.9 2.3z"/></symbol><symbol viewBox="0 0 24 24" id="home-line"><path fill="none" d="M0 0h24v24H0z"/><path d="M21 20a1 1 0 0 1-1 1H4a1 1 0 0 1-1-1V9.49a1 1 0 0 1 .386-.79l8-6.222a1 1 0 0 1 1.228 0l8 6.222a1 1 0 0 1 .386.79V20zm-2-1V9.978l-7-5.444-7 5.444V19h14z"/></symbol><symbol viewBox="0 0 24 24" id="home-5-line"><path fill="none" d="M0 0h24v24H0z"/><path d="M13 19h6V9.978l-7-5.444-7 5.444V19h6v-6h2v6zm8 1a1 1 0 0 1-1 1H4a1 1 0 0 1-1-1V9.49a1 1 0 0 1 .386-.79l8-6.222a1 1 0 0 1 1.228 0l8 6.222a1 1 0 0 1 .386.79V20z"/></symbol><symbol viewBox="0 0 24 24" id="send-plane-line"><path fill="none" d="M0 0h24v24H0z"/><path d="M1.923 9.37c-.51-.205-.504-.51.034-.689l19.086-6.362c.529-.176.832.12.684.638l-5.454 19.086c-.15.529-.475.553-.717.07L11 13 1.923 9.37zm4.89-.2l5.636 2.255 3.04 6.082 3.546-12.41L6.812 9.17z"/></symbol><symbol viewBox="0 0 24 24" id="send-plane-2-line"><path fill="none" d="M0 0h24v24H0z"/><path d="M3.741 1.408l18.462 10.154a.5.5 0 0 1 0 .876L3.741 22.592A.5.5 0 0 1 3 22.154V1.846a.5.5 0 0 1 .741-.438zM5 13v6.617L18.85 12 5 4.383V11h5v2H5z"/></symbol><symbol viewBox="0 0 24 24" id="drag-move-2-line"><path fill="none" d="M0 0h24v24H0z"/><path d="M11 11V5.828L9.172 7.657 7.757 6.243 12 2l4.243 4.243-1.415 1.414L13 5.828V11h5.172l-1.829-1.828 1.414-1.415L22 12l-4.243 4.243-1.414-1.415L18.172 13H13v5.172l1.828-1.829 1.415 1.414L12 22l-4.243-4.243 1.415-1.414L11 18.172V13H5.828l1.829 1.828-1.414 1.415L2 12l4.243-4.243 1.414 1.415L5.828 11z"/></symbol><symbol viewBox="0 0 24 24" id="fingerprint-line"><path fill="none" d="M0 0h24v24H0z"/><path d="M17 13v1c0 2.77-.664 5.445-1.915 7.846l-.227.42-1.747-.974c1.16-2.08 1.81-4.41 1.882-6.836L15 14v-1h2zm-6-3h2v4l-.005.379a12.941 12.941 0 0 1-2.691 7.549l-.231.29-1.55-1.264a10.944 10.944 0 0 0 2.471-6.588L11 14v-4zm1-4a5 5 0 0 1 5 5h-2a3 3 0 0 0-6 0v3c0 2.235-.82 4.344-2.271 5.977l-.212.23-1.448-1.38a6.969 6.969 0 0 0 1.925-4.524L7 14v-3a5 5 0 0 1 5-5zm0-4a9 9 0 0 1 9 9v3c0 1.698-.202 3.37-.597 4.99l-.139.539-1.93-.526c.392-1.437.613-2.922.658-4.435L19 14v-3A7 7 0 0 0 7.808 5.394L6.383 3.968A8.962 8.962 0 0 1 12 2zM4.968 5.383l1.426 1.425a6.966 6.966 0 0 0-1.39 3.951L5 11 5.004 13c0 1.12-.264 2.203-.762 3.177l-.156.29-1.737-.992c.38-.665.602-1.407.646-2.183L3.004 13v-2a8.94 8.94 0 0 1 1.964-5.617z"/></symbol><symbol viewBox="0 0 24 24" id="article-line"><path fill="none" d="M0 0h24v24H0z"/><path d="M20 22H4a1 1 0 0 1-1-1V3a1 1 0 0 1 1-1h16a1 1 0 0 1 1 1v18a1 1 0 0 1-1 1zm-1-2V4H5v16h14zM7 6h4v4H7V6zm0 6h10v2H7v-2zm0 4h10v2H7v-2zm6-9h4v2h-4V7z"/></symbol></svg>