<svg xmlns="http://www.w3.org/2000/svg" xlink="http://www.w3.org/1999/xlink" width="0" height="0" style="display:none;"><symbol viewBox="0 0 24 24" id="close-circle-line"><path fill="none" d="M0 0h24v24H0z"/><path d="M12 22C6.477 22 2 17.523 2 12S6.477 2 12 2s10 4.477 10 10-4.477 10-10 10zm0-2a8 8 0 1 0 0-16 8 8 0 0 0 0 16zm0-9.414l2.828-2.829 1.415 1.415L13.414 12l2.829 2.828-1.415 1.415L12 13.414l-2.828 2.829-1.415-1.415L10.586 12 7.757 9.172l1.415-1.415L12 10.586z"/></symbol><symbol viewBox="0 0 24 24" id="add-circle-line"><path fill="none" d="M0 0h24v24H0z"/><path d="M11 11V7h2v4h4v2h-4v4h-2v-4H7v-2h4zm1 11C6.477 22 2 17.523 2 12S6.477 2 12 2s10 4.477 10 10-4.477 10-10 10zm0-2a8 8 0 1 0 0-16 8 8 0 0 0 0 16z"/></symbol><symbol viewBox="0 0 24 24" id="information-fill"><path fill="none" d="M0 0h24v24H0z"/><path d="M12 22C6.477 22 2 17.523 2 12S6.477 2 12 2s10 4.477 10 10-4.477 10-10 10zm-1-11v6h2v-6h-2zm0-4v2h2V7h-2z"/></symbol><symbol viewBox="0 0 24 24" id="cake-line"><path fill="none" d="M0 0h24v24H0z"/><path d="M13 7v4h7a1 1 0 0 1 1 1v8h2v2H1v-2h2v-8a1 1 0 0 1 1-1h7V7h2zm6 6H5v7h14v-7zM13.83.402A3 3 0 0 1 12.732 4.5L11 5.5a3 3 0 0 1 1.098-4.098l1.732-1z"/></symbol><symbol viewBox="0 0 24 24" id="phone-line"><path fill="none" d="M0 0h24v24H0z"/><path d="M9.366 10.682a10.556 10.556 0 0 0 3.952 3.952l.884-1.238a1 1 0 0 1 1.294-.296 11.422 11.422 0 0 0 4.583 1.364 1 1 0 0 1 .921.997v4.462a1 1 0 0 1-.898.995c-.53.055-1.064.082-1.602.082C9.94 21 3 14.06 3 5.5c0-.538.027-1.072.082-1.602A1 1 0 0 1 4.077 3h4.462a1 1 0 0 1 .997.921A11.422 11.422 0 0 0 10.9 8.504a1 1 0 0 1-.296 1.294l-1.238.884zm-2.522-.657l1.9-1.357A13.41 13.41 0 0 1 7.647 5H5.01c-.006.166-.009.333-.009.5C5 12.956 11.044 19 18.5 19c.167 0 .334-.003.5-.01v-2.637a13.41 13.41 0 0 1-3.668-1.097l-1.357 1.9a12.442 12.442 0 0 1-1.588-.75l-.058-.033a12.556 12.556 0 0 1-4.702-4.702l-.033-.058a12.442 12.442 0 0 1-.75-1.588z"/></symbol><symbol viewBox="0 0 24 24" id="hospital-line"><path fill="none" d="M0 0h24v24H0z"/><path d="M8 20v-6h8v6h3V4H5v16h3zm2 0h4v-4h-4v4zm11 0h2v2H1v-2h2V3a1 1 0 0 1 1-1h16a1 1 0 0 1 1 1v17zM11 8V6h2v2h2v2h-2v2h-2v-2H9V8h2z"/></symbol><symbol viewBox="0 0 24 24" id="government-line"><path fill="none" d="M0 0h24v24H0z"/><path d="M20 6h3v2h-1v11h1v2H1v-2h1V8H1V6h3V4a1 1 0 0 1 1-1h14a1 1 0 0 1 1 1v2zm0 2H4v11h3v-7h2v7h2v-7h2v7h2v-7h2v7h3V8zM6 5v1h12V5H6z"/></symbol><symbol viewBox="0 0 24 24" id="file-list-3-line"><path fill="none" d="M0 0h24v24H0z"/><path d="M19 22H5a3 3 0 0 1-3-3V3a1 1 0 0 1 1-1h14a1 1 0 0 1 1 1v12h4v4a3 3 0 0 1-3 3zm-1-5v2a1 1 0 0 0 2 0v-2h-2zm-2 3V4H4v15a1 1 0 0 0 1 1h11zM6 7h8v2H6V7zm0 4h8v2H6v-2zm0 4h5v2H6v-2z"/></symbol><symbol viewBox="0 0 24 24" id="upload-cloud-2-line"><path fill="none" d="M0 0h24v24H0z"/><path d="M12 12.586l4.243 4.242-1.415 1.415L13 16.415V22h-2v-5.587l-1.828 1.83-1.415-1.415L12 12.586zM12 2a7.001 7.001 0 0 1 6.954 6.194 5.5 5.5 0 0 1-.953 10.784v-2.014a3.5 3.5 0 1 0-1.112-6.91 5 5 0 1 0-9.777 0 3.5 3.5 0 0 0-1.292 6.88l.18.03v2.014a5.5 5.5 0 0 1-.954-10.784A7 7 0 0 1 12 2z"/></symbol><symbol viewBox="0 0 24 24" id="map-pin-5-line"><path fill="none" d="M0 0h24v24H0z"/><path d="M12 18.485l4.243-4.242a6 6 0 1 0-8.486 0L12 18.485zm5.657-2.828L12 21.314l-5.657-5.657a8 8 0 1 1 11.314 0zM5 22h14v2H5v-2z"/></symbol><symbol viewBox="0 0 24 24" id="map-pin-line"><path fill="none" d="M0 0h24v24H0z"/><path d="M12 20.9l4.95-4.95a7 7 0 1 0-9.9 0L12 20.9zm0 2.828l-6.364-6.364a9 9 0 1 1 12.728 0L12 23.728zM12 13a2 2 0 1 0 0-4 2 2 0 0 0 0 4zm0 2a4 4 0 1 1 0-8 4 4 0 0 1 0 8z"/></symbol><symbol viewBox="0 0 24 24" id="map-pin-3-fill"><path fill="none" d="M0 0h24v24H0z"/><path d="M11 19.945A9.001 9.001 0 0 1 12 2a9 9 0 0 1 1 17.945V24h-2v-4.055z"/></symbol><symbol viewBox="0 0 24 24" id="lock-2-line"><path fill="none" d="M0 0h24v24H0z"/><path d="M6 8V7a6 6 0 1 1 12 0v1h2a1 1 0 0 1 1 1v12a1 1 0 0 1-1 1H4a1 1 0 0 1-1-1V9a1 1 0 0 1 1-1h2zm13 2H5v10h14V10zm-8 5.732a2 2 0 1 1 2 0V18h-2v-2.268zM8 8h8V7a4 4 0 1 0-8 0v1z"/></symbol><symbol viewBox="0 0 24 24" id="eye-line"><path fill="none" d="M0 0h24v24H0z"/><path d="M12 3c5.392 0 9.878 3.88 10.819 9-.94 5.12-5.427 9-10.819 9-5.392 0-9.878-3.88-10.819-9C2.121 6.88 6.608 3 12 3zm0 16a9.005 9.005 0 0 0 8.777-7 9.005 9.005 0 0 0-17.554 0A9.005 9.005 0 0 0 12 19zm0-2.5a4.5 4.5 0 1 1 0-9 4.5 4.5 0 0 1 0 9zm0-2a2.5 2.5 0 1 0 0-5 2.5 2.5 0 0 0 0 5z"/></symbol><symbol viewBox="0 0 24 24" id="search-line"><path fill="none" d="M0 0h24v24H0z"/><path d="M18.031 16.617l4.283 4.282-1.415 1.415-4.282-4.283A8.96 8.96 0 0 1 11 20c-4.968 0-9-4.032-9-9s4.032-9 9-9 9 4.032 9 9a8.96 8.96 0 0 1-1.969 5.617zm-2.006-.742A6.977 6.977 0 0 0 18 11c0-3.868-3.133-7-7-7-3.868 0-7 3.132-7 7 0 3.867 3.132 7 7 7a6.977 6.977 0 0 0 4.875-1.975l.15-.15z"/></symbol><symbol viewBox="0 0 24 24" id="search-2-line"><path fill="none" d="M0 0h24v24H0z"/><path d="M11 2c4.968 0 9 4.032 9 9s-4.032 9-9 9-9-4.032-9-9 4.032-9 9-9zm0 16c3.867 0 7-3.133 7-7 0-3.868-3.133-7-7-7-3.868 0-7 3.132-7 7 0 3.867 3.132 7 7 7zm8.485.071l2.829 2.828-1.415 1.415-2.828-2.829 1.414-1.414z"/></symbol><symbol viewBox="0 0 24 24" id="dashboard-3-line"><path fill="none" d="M0 0H24V24H0z"/><path d="M12 2c5.523 0 10 4.477 10 10s-4.477 10-10 10S2 17.523 2 12 6.477 2 12 2zm0 2c-4.418 0-8 3.582-8 8s3.582 8 8 8 8-3.582 8-8-3.582-8-8-8zm3.833 3.337c.237-.166.559-.138.763.067.204.204.23.526.063.76-2.18 3.046-3.38 4.678-3.598 4.897-.586.585-1.536.585-2.122 0-.585-.586-.585-1.536 0-2.122.374-.373 2.005-1.574 4.894-3.602zM17.5 11c.552 0 1 .448 1 1s-.448 1-1 1-1-.448-1-1 .448-1 1-1zm-11 0c.552 0 1 .448 1 1s-.448 1-1 1-1-.448-1-1 .448-1 1-1zm2.318-3.596c.39.39.39 1.023 0 1.414-.39.39-1.024.39-1.414 0-.39-.39-.39-1.024 0-1.414.39-.39 1.023-.39 1.414 0zM12 5.5c.552 0 1 .448 1 1s-.448 1-1 1-1-.448-1-1 .448-1 1-1z"/></symbol><symbol viewBox="0 0 24 24" id="calendar-2-line"><path fill="none" d="M0 0h24v24H0z"/><path d="M17 3h4a1 1 0 0 1 1 1v16a1 1 0 0 1-1 1H3a1 1 0 0 1-1-1V4a1 1 0 0 1 1-1h4V1h2v2h6V1h2v2zm3 8H4v8h16v-8zm-5-6H9v2H7V5H4v4h16V5h-3v2h-2V5zm-9 8h2v2H6v-2zm5 0h2v2h-2v-2zm5 0h2v2h-2v-2z"/></symbol><symbol viewBox="0 0 24 24" id="group-line"><path fill="none" d="M0 0h24v24H0z"/><path d="M2 22a8 8 0 1 1 16 0h-2a6 6 0 1 0-12 0H2zm8-9c-3.315 0-6-2.685-6-6s2.685-6 6-6 6 2.685 6 6-2.685 6-6 6zm0-2c2.21 0 4-1.79 4-4s-1.79-4-4-4-4 1.79-4 4 1.79 4 4 4zm8.284 3.703A8.002 8.002 0 0 1 23 22h-2a6.001 6.001 0 0 0-3.537-5.473l.82-1.824zm-.688-11.29A5.5 5.5 0 0 1 21 8.5a5.499 5.499 0 0 1-5 5.478v-2.013a3.5 3.5 0 0 0 1.041-6.609l.555-1.943z"/></symbol><symbol viewBox="0 0 24 24" id="discuss-line"><path fill="none" d="M0 0h24v24H0z"/><path d="M14 22.5L11.2 19H6a1 1 0 0 1-1-1V7.103a1 1 0 0 1 1-1h16a1 1 0 0 1 1 1V18a1 1 0 0 1-1 1h-5.2L14 22.5zm1.839-5.5H21V8.103H7V17H12.161L14 19.298 15.839 17zM2 2h17v2H3v11H1V3a1 1 0 0 1 1-1z"/></symbol><symbol viewBox="0 0 24 24" id="user-2-line"><path fill="none" d="M0 0h24v24H0z"/><path d="M4 22a8 8 0 1 1 16 0H4zm9-5.917V20h4.659A6.009 6.009 0 0 0 13 16.083zM11 20v-3.917A6.009 6.009 0 0 0 6.341 20H11zm1-7c-3.315 0-6-2.685-6-6s2.685-6 6-6 6 2.685 6 6-2.685 6-6 6zm0-2c2.21 0 4-1.79 4-4s-1.79-4-4-4-4 1.79-4 4 1.79 4 4 4z"/></symbol><symbol viewBox="0 0 24 24" id="building-4-line"><path fill="none" d="M0 0h24v24H0z"/><path d="M21 20h2v2H1v-2h2V3a1 1 0 0 1 1-1h16a1 1 0 0 1 1 1v17zm-2 0V4H5v16h14zM8 11h3v2H8v-2zm0-4h3v2H8V7zm0 8h3v2H8v-2zm5 0h3v2h-3v-2zm0-4h3v2h-3v-2zm0-4h3v2h-3V7z"/></symbol><symbol viewBox="0 0 24 24" id="settings-line"><path fill="none" d="M0 0h24v24H0z"/><path d="M12 1l9.5 5.5v11L12 23l-9.5-5.5v-11L12 1zm0 2.311L4.5 7.653v8.694l7.5 4.342 7.5-4.342V7.653L12 3.311zM12 16a4 4 0 1 1 0-8 4 4 0 0 1 0 8zm0-2a2 2 0 1 0 0-4 2 2 0 0 0 0 4z"/></symbol><symbol viewBox="0 0 24 24" id="arrow-down-s-line"><path fill="none" d="M0 0h24v24H0z"/><path d="M12 13.172l4.95-4.95 1.414 1.414L12 16 5.636 9.636 7.05 8.222z"/></symbol><symbol viewBox="0 0 24 24" id="arrow-up-s-line"><path fill="none" d="M0 0h24v24H0z"/><path d="M12 10.828l-4.95 4.95-1.414-1.414L12 8l6.364 6.364-1.414 1.414z"/></symbol><symbol viewBox="0 0 24 24" id="arrow-right-s-line"><path fill="none" d="M0 0h24v24H0z"/><path d="M13.172 12l-4.95-4.95 1.414-1.414L16 12l-6.364 6.364-1.414-1.414z"/></symbol><symbol viewBox="0 0 24 24" id="arrow-left-s-line"><path fill="none" d="M0 0h24v24H0z"/><path d="M10.828 12l4.95 4.95-1.414 1.414L8 12l6.364-6.364 1.414 1.414z"/></symbol><symbol viewBox="0 0 24 24" id="arrow-left-line"><path fill="none" d="M0 0h24v24H0z"/><path d="M7.828 11H20v2H7.828l5.364 5.364-1.414 1.414L4 12l7.778-7.778 1.414 1.414z"/></symbol><symbol viewBox="0 0 24 24" id="list-check-2"><path fill="none" d="M0 0h24v24H0z"/><path d="M11 4h10v2H11V4zm0 4h6v2h-6V8zm0 6h10v2H11v-2zm0 4h6v2h-6v-2zM3 4h6v6H3V4zm2 2v2h2V6H5zm-2 8h6v6H3v-6zm2 2v2h2v-2H5z"/></symbol><symbol viewBox="0 0 24 24" id="add-line"><path fill="none" d="M0 0h24v24H0z"/><path d="M11 11V5h2v6h6v2h-6v6h-2v-6H5v-2z"/></symbol><symbol viewBox="0 0 24 24" id="notification-2-line"><path fill="none" d="M0 0h24v24H0z"/><path d="M22 20H2v-2h1v-6.969C3 6.043 7.03 2 12 2s9 4.043 9 9.031V18h1v2zM5 18h14v-6.969C19 7.148 15.866 4 12 4s-7 3.148-7 7.031V18zm4.5 3h5a2.5 2.5 0 1 1-5 0z"/></symbol><symbol viewBox="0 0 24 24" id="checkbox-circle-line"><path fill="none" d="M0 0h24v24H0z"/><path d="M12 22C6.477 22 2 17.523 2 12S6.477 2 12 2s10 4.477 10 10-4.477 10-10 10zm0-2a8 8 0 1 0 0-16 8 8 0 0 0 0 16zm-.997-4L6.76 11.757l1.414-1.414 2.829 2.829 5.656-5.657 1.415 1.414L11.003 16z"/></symbol><symbol viewBox="0 0 24 24" id="checkbox-circle-fill"><path fill="none" d="M0 0h24v24H0z"/><path d="M12 22C6.477 22 2 17.523 2 12S6.477 2 12 2s10 4.477 10 10-4.477 10-10 10zm-.997-6l7.07-7.071-1.414-1.414-5.656 5.657-2.829-2.829-1.414 1.414L11.003 16z"/></symbol><symbol viewBox="0 0 24 24" id="close-circle-fill"><path fill="none" d="M0 0h24v24H0z"/><path d="M12 22C6.477 22 2 17.523 2 12S6.477 2 12 2s10 4.477 10 10-4.477 10-10 10zm0-11.414L9.172 7.757 7.757 9.172 10.586 12l-2.829 2.828 1.415 1.415L12 13.414l2.828 2.829 1.415-1.415L13.414 12l2.829-2.828-1.415-1.415L12 10.586z"/></symbol><symbol viewBox="0 0 24 24" id="more-fill"><path fill="none" d="M0 0h24v24H0z"/><path d="M5 10c-1.1 0-2 .9-2 2s.9 2 2 2 2-.9 2-2-.9-2-2-2zm14 0c-1.1 0-2 .9-2 2s.9 2 2 2 2-.9 2-2-.9-2-2-2zm-7 0c-1.1 0-2 .9-2 2s.9 2 2 2 2-.9 2-2-.9-2-2-2z"/></symbol><symbol viewBox="0 0 24 24" id="checkbox-blank-line"><path fill="none" d="M0 0h24v24H0z"/><path d="M4 3h16a1 1 0 0 1 1 1v16a1 1 0 0 1-1 1H4a1 1 0 0 1-1-1V4a1 1 0 0 1 1-1zm1 2v14h14V5H5z"/></symbol><symbol viewBox="0 0 24 24" id="checkbox-fill"><path fill="none" d="M0 0h24v24H0z"/><path d="M4 3h16a1 1 0 0 1 1 1v16a1 1 0 0 1-1 1H4a1 1 0 0 1-1-1V4a1 1 0 0 1 1-1zm7.003 13l7.07-7.071-1.414-1.414-5.656 5.657-2.829-2.829-1.414 1.414L11.003 16z"/></symbol><symbol viewBox="0 0 24 24" id="arrow-down-s-fill"><path fill="none" d="M0 0h24v24H0z"/><path d="M12 16l-6-6h12z"/></symbol><symbol viewBox="0 0 24 24" id="profile-line"><path fill="none" d="M0 0h24v24H0z"/><path d="M2 3.993A1 1 0 0 1 2.992 3h18.016c.548 0 .992.445.992.993v16.014a1 1 0 0 1-.992.993H2.992A.993.993 0 0 1 2 20.007V3.993zM4 5v14h16V5H4zm2 2h6v6H6V7zm2 2v2h2V9H8zm-2 6h12v2H6v-2zm8-8h4v2h-4V7zm0 4h4v2h-4v-2z"/></symbol><symbol viewBox="0 0 24 24" id="health-book-line"><path fill="none" d="M0 0H24V24H0z"/><path d="M20 2c.552 0 1 .448 1 1v18c0 .552-.448 1-1 1H6c-.552 0-1-.448-1-1v-2H3v-2h2v-2H3v-2h2v-2H3V9h2V7H3V5h2V3c0-.552.448-1 1-1h14zm-1 2H7v16h12V4zm-5 4v3h3v2h-3.001L14 16h-2l-.001-3H9v-2h3V8h2z"/></symbol><symbol viewBox="0 0 24 24" id="history-line"><path fill="none" d="M0 0H24V24H0z"/><path d="M12 2c5.523 0 10 4.477 10 10s-4.477 10-10 10S2 17.523 2 12h2c0 4.418 3.582 8 8 8s8-3.582 8-8-3.582-8-8-8C9.25 4 6.824 5.387 5.385 7.5H8v2H2v-6h2V6c1.824-2.43 4.729-4 8-4zm1 5v4.585l3.243 3.243-1.415 1.415L11 12.413V7h2z"/></symbol><symbol viewBox="0 0 24 24" id="file-text-line"><path fill="none" d="M0 0h24v24H0z"/><path d="M21 8v12.993A1 1 0 0 1 20.007 22H3.993A.993.993 0 0 1 3 21.008V2.992C3 2.455 3.449 2 4.002 2h10.995L21 8zm-2 1h-5V4H5v16h14V9zM8 7h3v2H8V7zm0 4h8v2H8v-2zm0 4h8v2H8v-2z"/></symbol><symbol viewBox="0 0 24 24" id="attachment-2"><path fill="none" d="M0 0h24v24H0z"/><path d="M14.828 7.757l-5.656 5.657a1 1 0 1 0 1.414 1.414l5.657-5.656A3 3 0 1 0 12 4.929l-5.657 5.657a5 5 0 1 0 7.071 7.07L19.071 12l1.414 1.414-5.657 5.657a7 7 0 1 1-9.9-9.9l5.658-5.656a5 5 0 0 1 7.07 7.07L12 16.244A3 3 0 1 1 7.757 12l5.657-5.657 1.414 1.414z"/></symbol><symbol viewBox="0 0 24 24" id="capsule-line"><path fill="none" d="M0 0H24V24H0z"/><path d="M19.778 4.222c2.343 2.343 2.343 6.142 0 8.485l-7.07 7.071c-2.344 2.343-6.143 2.343-8.486 0-2.343-2.343-2.343-6.142 0-8.485l7.07-7.071c2.344-2.343 6.143-2.343 8.486 0zm-5.656 11.313L8.465 9.878l-2.829 2.83c-1.562 1.561-1.562 4.094 0 5.656 1.562 1.562 4.095 1.562 5.657 0l2.829-2.83zm4.242-9.899c-1.562-1.562-4.095-1.562-5.657 0L9.88 8.464l5.657 5.657 2.828-2.828c1.562-1.562 1.562-4.095 0-5.657z"/></symbol><symbol viewBox="0 0 24 24" id="user-line"><path fill="none" d="M0 0h24v24H0z"/><path d="M4 22a8 8 0 1 1 16 0h-2a6 6 0 1 0-12 0H4zm8-9c-3.315 0-6-2.685-6-6s2.685-6 6-6 6 2.685 6 6-2.685 6-6 6zm0-2c2.21 0 4-1.79 4-4s-1.79-4-4-4-4 1.79-4 4 1.79 4 4 4z"/></symbol><symbol viewBox="0 0 24 24" id="mail-line"><path fill="none" d="M0 0h24v24H0z"/><path d="M3 3h18a1 1 0 0 1 1 1v16a1 1 0 0 1-1 1H3a1 1 0 0 1-1-1V4a1 1 0 0 1 1-1zm17 4.238l-7.928 7.1L4 7.216V19h16V7.238zM4.511 5l7.55 6.662L19.502 5H4.511z"/></symbol><symbol viewBox="0 0 24 24" id="genderless-line"><path fill="none" d="M0 0h24v24H0z"/><path d="M13 7.066A7.501 7.501 0 0 1 12 22a7.5 7.5 0 0 1-1-14.934V1h2v6.066zM12 20a5.5 5.5 0 1 0 0-11 5.5 5.5 0 0 0 0 11z"/></symbol><symbol viewBox="0 0 24 24" id="women-line"><path fill="none" d="M0 0h24v24H0z"/><path d="M11 15.934A7.501 7.501 0 0 1 12 1a7.5 7.5 0 0 1 1 14.934V18h5v2h-5v4h-2v-4H6v-2h5v-2.066zM12 14a5.5 5.5 0 1 0 0-11 5.5 5.5 0 0 0 0 11z"/></symbol><symbol viewBox="0 0 24 24" id="men-line"><path fill="none" d="M0 0h24v24H0z"/><path d="M15.05 8.537L18.585 5H14V3h8v8h-2V6.414l-3.537 3.537a7.5 7.5 0 1 1-1.414-1.414zM10.5 20a5.5 5.5 0 1 0 0-11 5.5 5.5 0 0 0 0 11z"/></symbol><symbol viewBox="0 0 24 24" id="road-map-line"><path fill="none" d="M0 0h24v24H0z"/><path d="M4 6.143v12.824l5.065-2.17 6 3L20 17.68V4.857l1.303-.558a.5.5 0 0 1 .697.46V19l-7 3-6-3-6.303 2.701a.5.5 0 0 1-.697-.46V7l2-.857zm12.243 5.1L12 15.485l-4.243-4.242a6 6 0 1 1 8.486 0zM12 12.657l2.828-2.829a4 4 0 1 0-5.656 0L12 12.657z"/></symbol><symbol viewBox="0 0 24 24" id="heart-pulse-line"><path fill="none" d="M0 0H24V24H0z"/><path d="M16.5 3C19.538 3 22 5.5 22 9c0 7-7.5 11-10 12.5-1.977-1.186-7.083-3.937-9.131-8.499L1 13v-2h1.21C2.074 10.364 2 9.698 2 9c0-3.5 2.5-6 5.5-6C9.36 3 11 4 12 5c1-1 2.64-2 4.5-2zm0 2c-1.076 0-2.24.57-3.086 1.414L12 7.828l-1.414-1.414C9.74 5.57 8.576 5 7.5 5 5.56 5 4 6.656 4 9c0 .685.09 1.352.267 2h2.167L8.5 7.556l3 5L12.434 11H17v2h-3.434L11.5 16.444l-3-5L7.566 13H5.108c.79 1.374 1.985 2.668 3.537 3.903.745.592 1.54 1.145 2.421 1.7.299.189.595.37.934.572.339-.202.635-.383.934-.571.881-.556 1.676-1.109 2.42-1.701C18.335 14.533 20 11.943 20 9c0-2.36-1.537-4-3.5-4z"/></symbol><symbol viewBox="0 0 24 24" id="nurse-line"><path fill="none" d="M0 0H24V24H0z"/><path d="M12 15c4.08 0 7.446 3.054 7.938 7H4.062c.492-3.946 3.858-7 7.938-7zm-1.813 2.28C8.753 17.734 7.546 18.713 6.8 20H12l-1.813-2.72zm3.627 0L12 20h5.199c-.745-1.287-1.952-2.266-3.385-2.72zM18 2v6c0 3.314-2.686 6-6 6s-6-2.686-6-6V2h12zM8 8c0 2.21 1.79 4 4 4s4-1.79 4-4H8zm8-4H8v2h8V4z"/></symbol><symbol viewBox="0 0 24 24" id="dossier-line"><path fill="none" d="M0 0H24V24H0z"/><path d="M17 2v2h3c.552 0 1 .448 1 1v16c0 .552-.448 1-1 1H4c-.552 0-1-.448-1-1V5c0-.552.448-1 1-1h3V2h10zM7 6H5v14h14V6h-2v2H7V6zm6 5v2h2v2h-2.001L13 17h-2l-.001-2H9v-2h2v-2h2zm2-7H9v2h6V4z"/></symbol><symbol viewBox="0 0 24 24" id="first-aid-kit-line"><path fill="none" d="M0 0H24V24H0z"/><path d="M16 1c.552 0 1 .448 1 1v3h4c.552 0 1 .448 1 1v14c0 .552-.448 1-1 1H3c-.552 0-1-.448-1-1V6c0-.552.448-1 1-1h4V2c0-.552.448-1 1-1h8zm4 6H4v12h16V7zm-7 2v3h3v2h-3.001L13 17h-2l-.001-3H8v-2h3V9h2zm2-6H9v2h6V3z"/></symbol><symbol viewBox="0 0 24 24" id="microscope-line"><path fill="none" d="M0 0H24V24H0z"/><path d="M13.196 2.268l3.25 5.63c.276.477.112 1.089-.366 1.365l-1.3.75 1.001 1.732-1.732 1-1-1.733-1.299.751c-.478.276-1.09.112-1.366-.366L8.546 8.215C6.494 8.837 5 10.745 5 13c0 .625.115 1.224.324 1.776C6.1 14.284 7.016 14 8 14c1.684 0 3.174.833 4.08 2.109l7.688-4.439 1 1.732-7.878 4.549c.072.338.11.69.11 1.049 0 .343-.034.677-.1 1H21v2l-17 .001c-.628-.836-1-1.875-1-3.001 0-1.007.298-1.945.81-2.73C3.293 15.295 3 14.182 3 13c0-2.995 1.881-5.551 4.527-6.55l-.393-.682c-.552-.957-.225-2.18.732-2.732l2.598-1.5c.957-.552 2.18-.225 2.732.732zM8 16c-1.657 0-3 1.343-3 3 0 .35.06.687.17 1h5.66c.11-.313.17-.65.17-1 0-1.657-1.343-3-3-3zm3.464-12.732l-2.598 1.5 2.75 4.763 2.598-1.5-2.75-4.763z"/></symbol><symbol viewBox="0 0 24 24" id="stethoscope-line"><path fill="none" d="M0 0H24V24H0z"/><path d="M8 3v2H6v4c0 2.21 1.79 4 4 4s4-1.79 4-4V5h-2V3h3c.552 0 1 .448 1 1v5c0 2.973-2.162 5.44-5 5.917V16.5c0 1.933 1.567 3.5 3.5 3.5 1.497 0 2.775-.94 3.275-2.263C16.728 17.27 16 16.22 16 15c0-1.657 1.343-3 3-3s3 1.343 3 3c0 1.371-.92 2.527-2.176 2.885C19.21 20.252 17.059 22 14.5 22 11.462 22 9 19.538 9 16.5v-1.583C6.162 14.441 4 11.973 4 9V4c0-.552.448-1 1-1h3zm11 11c-.552 0-1 .448-1 1s.448 1 1 1 1-.448 1-1-.448-1-1-1z"/></symbol><symbol viewBox="0 0 24 24" id="syringe-line"><path fill="none" d="M0 0H24V24H0z"/><path d="M21.678 7.98l-1.415 1.413-2.12-2.12-2.122 2.12 3.535 3.536-1.414 1.414-.707-.707L11.071 20H5.414l-2.121 2.121-1.414-1.414L4 18.586v-5.657l6.364-6.364-.707-.707 1.414-1.414 3.536 3.535 2.12-2.121-2.12-2.121 1.414-1.415 5.657 5.657zm-5.657 4.242l-4.243-4.243-1.414 1.414 2.121 2.122-1.414 1.414-2.121-2.121-1.414 1.414 2.12 2.121-1.413 1.414-2.122-2.121-.121.121V18h4.243l5.778-5.778z"/></symbol><symbol viewBox="0 0 24 24" id="save-line"><path fill="none" d="M0 0h24v24H0z"/><path d="M7 19v-6h10v6h2V7.828L16.172 5H5v14h2zM4 3h13l4 4v13a1 1 0 0 1-1 1H4a1 1 0 0 1-1-1V4a1 1 0 0 1 1-1zm5 12v4h6v-4H9z"/></symbol><symbol viewBox="0 0 24 24" id="calendar-event-line"><path fill="none" d="M0 0h24v24H0z"/><path d="M17 3h4a1 1 0 0 1 1 1v16a1 1 0 0 1-1 1H3a1 1 0 0 1-1-1V4a1 1 0 0 1 1-1h4V1h2v2h6V1h2v2zm3 6V5h-3v2h-2V5H9v2H7V5H4v4h16zm0 2H4v8h16v-8zM6 13h5v4H6v-4z"/></symbol><symbol viewBox="0 0 24 24" id="bank-card-line"><path fill="none" d="M0 0h24v24H0z"/><path d="M3 3h18a1 1 0 0 1 1 1v16a1 1 0 0 1-1 1H3a1 1 0 0 1-1-1V4a1 1 0 0 1 1-1zm17 8H4v8h16v-8zm0-2V5H4v4h16zm-6 6h4v2h-4v-2z"/></symbol><symbol viewBox="0 0 24 24" id="shield-user-line"><path fill="none" d="M0 0h24v24H0z"/><path d="M3.783 2.826L12 1l8.217 1.826a1 1 0 0 1 .783.976v9.987a6 6 0 0 1-2.672 4.992L12 23l-6.328-4.219A6 6 0 0 1 3 13.79V3.802a1 1 0 0 1 .783-.976zM5 4.604v9.185a4 4 0 0 0 1.781 3.328L12 20.597l5.219-3.48A4 4 0 0 0 19 13.79V4.604L12 3.05 5 4.604zM12 11a2.5 2.5 0 1 1 0-5 2.5 2.5 0 0 1 0 5zm-4.473 5a4.5 4.5 0 0 1 8.946 0H7.527z"/></symbol><symbol viewBox="0 0 24 24" id="delete-bin-5-line"><path fill="none" d="M0 0h24v24H0z"/><path d="M4 8h16v13a1 1 0 0 1-1 1H5a1 1 0 0 1-1-1V8zm2 2v10h12V10H6zm3 2h2v6H9v-6zm4 0h2v6h-2v-6zM7 5V3a1 1 0 0 1 1-1h8a1 1 0 0 1 1 1v2h5v2H2V5h5zm2-1v1h6V4H9z"/></symbol><symbol viewBox="0 0 24 24" id="delete-bin-7-line"><path fill="none" d="M0 0h24v24H0z"/><path d="M17 6h5v2h-2v13a1 1 0 0 1-1 1H5a1 1 0 0 1-1-1V8H2V6h5V3a1 1 0 0 1 1-1h8a1 1 0 0 1 1 1v3zm1 2H6v12h12V8zM9 4v2h6V4H9z"/></symbol><symbol viewBox="0 0 24 24" id="close-line"><path fill="none" d="M0 0h24v24H0z"/><path d="M12 10.586l4.95-4.95 1.414 1.414-4.95 4.95 4.95 4.95-1.414 1.414-4.95-4.95-4.95 4.95-1.414-1.414 4.95-4.95-4.95-4.95L7.05 5.636z"/></symbol><symbol viewBox="0 0 24 24" id="user-add-line"><path fill="none" d="M0 0h24v24H0z"/><path d="M14 14.252v2.09A6 6 0 0 0 6 22l-2-.001a8 8 0 0 1 10-7.748zM12 13c-3.315 0-6-2.685-6-6s2.685-6 6-6 6 2.685 6 6-2.685 6-6 6zm0-2c2.21 0 4-1.79 4-4s-1.79-4-4-4-4 1.79-4 4 1.79 4 4 4zm6 6v-3h2v3h3v2h-3v3h-2v-3h-3v-2h3z"/></symbol><symbol viewBox="0 0 24 24" id="user-shared-line"><path fill="none" d="M0 0h24v24H0z"/><path d="M14 14.252v2.09A6 6 0 0 0 6 22l-2-.001a8 8 0 0 1 10-7.748zM12 13c-3.315 0-6-2.685-6-6s2.685-6 6-6 6 2.685 6 6-2.685 6-6 6zm0-2c2.21 0 4-1.79 4-4s-1.79-4-4-4-4 1.79-4 4 1.79 4 4 4zm6.586 6l-1.829-1.828 1.415-1.415L22.414 18l-4.242 4.243-1.415-1.415L18.586 19H15v-2h3.586z"/></symbol><symbol viewBox="0 0 24 24" id="user-received-line"><path fill="none" d="M0 0h24v24H0z"/><path d="M14 14.252v2.09A6 6 0 0 0 6 22l-2-.001a8 8 0 0 1 10-7.748zM12 13c-3.315 0-6-2.685-6-6s2.685-6 6-6 6 2.685 6 6-2.685 6-6 6zm0-2c2.21 0 4-1.79 4-4s-1.79-4-4-4-4 1.79-4 4 1.79 4 4 4zm7.418 6h3.586v2h-3.586l1.829 1.828-1.414 1.415L15.59 18l4.243-4.243 1.414 1.415L19.418 17z"/></symbol><symbol viewBox="0 0 24 24" id="user-settings-line"><path fill="none" d="M0 0h24v24H0z"/><path d="M12 14v2a6 6 0 0 0-6 6H4a8 8 0 0 1 8-8zm0-1c-3.315 0-6-2.685-6-6s2.685-6 6-6 6 2.685 6 6-2.685 6-6 6zm0-2c2.21 0 4-1.79 4-4s-1.79-4-4-4-4 1.79-4 4 1.79 4 4 4zm2.595 7.812a3.51 3.51 0 0 1 0-1.623l-.992-.573 1-1.732.992.573A3.496 3.496 0 0 1 17 14.645V13.5h2v1.145c.532.158 1.012.44 1.405.812l.992-.573 1 1.732-.992.573a3.51 3.51 0 0 1 0 1.622l.992.573-1 1.732-.992-.573a3.496 3.496 0 0 1-1.405.812V22.5h-2v-1.145a3.496 3.496 0 0 1-1.405-.812l-.992.573-1-1.732.992-.572zM18 19.5a1.5 1.5 0 1 0 0-3 1.5 1.5 0 0 0 0 3z"/></symbol><symbol viewBox="0 0 24 24" id="user-star-line"><path fill="none" d="M0 0h24v24H0z"/><path d="M12 14v2a6 6 0 0 0-6 6H4a8 8 0 0 1 8-8zm0-1c-3.315 0-6-2.685-6-6s2.685-6 6-6 6 2.685 6 6-2.685 6-6 6zm0-2c2.21 0 4-1.79 4-4s-1.79-4-4-4-4 1.79-4 4 1.79 4 4 4zm6 10.5l-2.939 1.545.561-3.272-2.377-2.318 3.286-.478L18 14l1.47 2.977 3.285.478-2.377 2.318.56 3.272L18 21.5z"/></symbol><symbol viewBox="0 0 24 24" id="user-heart-line"><path fill="none" d="M0 0h24v24H0z"/><path d="M17.841 15.659l.176.177.178-.177a2.25 2.25 0 0 1 3.182 3.182l-3.36 3.359-3.358-3.359a2.25 2.25 0 0 1 3.182-3.182zM12 14v2a6 6 0 0 0-6 6H4a8 8 0 0 1 7.75-7.996L12 14zm0-13c3.315 0 6 2.685 6 6a5.998 5.998 0 0 1-5.775 5.996L12 13c-3.315 0-6-2.685-6-6a5.998 5.998 0 0 1 5.775-5.996L12 1zm0 2C9.79 3 8 4.79 8 7s1.79 4 4 4 4-1.79 4-4-1.79-4-4-4z"/></symbol><symbol viewBox="0 0 24 24" id="user-search-line"><path fill="none" d="M0 0h24v24H0z"/><path d="M12 14v2a6 6 0 0 0-6 6H4a8 8 0 0 1 8-8zm0-1c-3.315 0-6-2.685-6-6s2.685-6 6-6 6 2.685 6 6-2.685 6-6 6zm0-2c2.21 0 4-1.79 4-4s-1.79-4-4-4-4 1.79-4 4 1.79 4 4 4zm9.446 9.032l1.504 1.504-1.414 1.414-1.504-1.504a4 4 0 1 1 1.414-1.414zM18 20a2 2 0 1 0 0-4 2 2 0 0 0 0 4z"/></symbol><symbol viewBox="0 0 24 24" id="chat-2-line"><path fill="none" d="M0 0h24v24H0z"/><path d="M14.45 19L12 22.5 9.55 19H3a1 1 0 0 1-1-1V4a1 1 0 0 1 1-1h18a1 1 0 0 1 1 1v14a1 1 0 0 1-1 1h-6.55zm-1.041-2H20V5H4v12h6.591L12 19.012 13.409 17z"/></symbol><symbol viewBox="0 0 24 24" id="ruler-line"><path fill="none" d="M0 0h24v24H0z"/><path d="M6.343 14.621L3.515 17.45l3.535 3.535L20.485 7.55 16.95 4.015l-2.122 2.121 1.415 1.414-1.415 1.414-1.414-1.414-2.121 2.122 2.121 2.12L12 13.208l-2.121-2.121-2.122 2.121 1.415 1.414-1.415 1.415-1.414-1.415zM17.657 1.893l4.95 4.95a1 1 0 0 1 0 1.414l-14.85 14.85a1 1 0 0 1-1.414 0l-4.95-4.95a1 1 0 0 1 0-1.414l14.85-14.85a1 1 0 0 1 1.414 0z"/></symbol><symbol viewBox="0 0 24 24" id="scales-2-line"><path fill="none" d="M0 0H24V24H0z"/><path d="M6 2c0 .513.49 1 1 1h10c.513 0 1-.49 1-1h2c0 1.657-1.343 3-3 3h-4l.001 2.062C16.947 7.555 20 10.921 20 15v6c0 .552-.448 1-1 1H5c-.552 0-1-.448-1-1v-6c0-4.08 3.054-7.446 7-7.938V5H7C5.34 5 4 3.66 4 2h2zm6 7c-3.238 0-6 2.76-6 6v5h12v-5c0-3.238-2.762-6-6-6zm0 2c.742 0 1.436.202 2.032.554l-2.74 2.739c-.39.39-.39 1.024 0 1.414.361.36.929.388 1.32.083l.095-.083 2.74-2.739c.351.596.553 1.29.553 2.032 0 2.21-1.79 4-4 4s-4-1.79-4-4 1.79-4 4-4z"/></symbol><symbol viewBox="0 0 24 24" id="drop-line"><path fill="none" d="M0 0h24v24H0z"/><path d="M12 3.1L7.05 8.05a7 7 0 1 0 9.9 0L12 3.1zm0-2.828l6.364 6.364a9 9 0 1 1-12.728 0L12 .272z"/></symbol><symbol viewBox="0 0 24 24" id="goblet-line"><path fill="none" d="M0 0h24v24H0z"/><path d="M11 19v-5.111L3 5V3h18v2l-8 8.889V19h5v2H6v-2h5zM7.49 7h9.02l1.8-2H5.69l1.8 2zm1.8 2L12 12.01 14.71 9H9.29z"/></symbol><symbol viewBox="0 0 24 24" id="radio-button-line"><path fill="none" d="M0 0h24v24H0z"/><path d="M12 22C6.477 22 2 17.523 2 12S6.477 2 12 2s10 4.477 10 10-4.477 10-10 10zm0-2a8 8 0 1 0 0-16 8 8 0 0 0 0 16zm0-3a5 5 0 1 1 0-10 5 5 0 0 1 0 10z"/></symbol><symbol viewBox="0 0 24 24" id="checkbox-blank-circle-line"><path fill="none" d="M0 0h24v24H0z"/><path d="M12 22C6.477 22 2 17.523 2 12S6.477 2 12 2s10 4.477 10 10-4.477 10-10 10zm0-2a8 8 0 1 0 0-16 8 8 0 0 0 0 16z"/></symbol><symbol viewBox="0 0 24 24" id="add-circle-fill"><path fill="none" d="M0 0h24v24H0z"/><path d="M12 22C6.477 22 2 17.523 2 12S6.477 2 12 2s10 4.477 10 10-4.477 10-10 10zm-1-11H7v2h4v4h2v-4h4v-2h-4V7h-2v4z"/></symbol><symbol viewBox="0 0 24 24" id="hotel-bed-line"><path fill="none" d="M0 0h24v24H0z"/><path d="M22 11v9h-2v-3H4v3H2V4h2v10h8V7h6a4 4 0 0 1 4 4zm-2 3v-3a2 2 0 0 0-2-2h-4v5h6zM8 11a1 1 0 1 0 0-2 1 1 0 0 0 0 2zm0 2a3 3 0 1 1 0-6 3 3 0 0 1 0 6z"/></symbol><symbol viewBox="0 0 24 24" id="image-line"><path fill="none" d="M0 0h24v24H0z"/><path d="M4.828 21l-.02.02-.021-.02H2.992A.993.993 0 0 1 2 20.007V3.993A1 1 0 0 1 2.992 3h18.016c.548 0 .992.445.992.993v16.014a1 1 0 0 1-.992.993H4.828zM20 15V5H4v14L14 9l6 6zm0 2.828l-6-6L6.828 19H20v-1.172zM8 11a2 2 0 1 1 0-4 2 2 0 0 1 0 4z"/></symbol><symbol viewBox="0 0 24 24" id="message-line"><path fill="none" d="M0 0h24v24H0z"/><path d="M6.455 19L2 22.5V4a1 1 0 0 1 1-1h18a1 1 0 0 1 1 1v14a1 1 0 0 1-1 1H6.455zm-.692-2H20V5H4v13.385L5.763 17zM8 10h8v2H8v-2z"/></symbol><symbol viewBox="0 0 24 24" id="information-line"><path fill="none" d="M0 0h24v24H0z"/><path d="M12 22C6.477 22 2 17.523 2 12S6.477 2 12 2s10 4.477 10 10-4.477 10-10 10zm0-2a8 8 0 1 0 0-16 8 8 0 0 0 0 16zM11 7h2v2h-2V7zm0 4h2v6h-2v-6z"/></symbol><symbol viewBox="0 0 24 24" id="pencil-line"><path fill="none" d="M0 0h24v24H0z"/><path d="M15.728 9.686l-1.414-1.414L5 17.586V19h1.414l9.314-9.314zm1.414-1.414l1.414-1.414-1.414-1.414-1.414 1.414 1.414 1.414zM7.242 21H3v-4.243L16.435 3.322a1 1 0 0 1 1.414 0l2.829 2.829a1 1 0 0 1 0 1.414L7.243 21z"/></symbol><symbol viewBox="0 0 24 24" id="award-line"><path fill="none" d="M0 0h24v24H0z"/><path d="M17 15.245v6.872a.5.5 0 0 1-.757.429L12 20l-4.243 2.546a.5.5 0 0 1-.757-.43v-6.87a8 8 0 1 1 10 0zm-8 1.173v3.05l3-1.8 3 1.8v-3.05A7.978 7.978 0 0 1 12 17a7.978 7.978 0 0 1-3-.582zM12 15a6 6 0 1 0 0-12 6 6 0 0 0 0 12z"/></symbol><symbol viewBox="0 0 24 24" id="medal-line"><path fill="none" d="M0 0h24v24H0z"/><path d="M12 7a8 8 0 1 1 0 16 8 8 0 0 1 0-16zm0 2a6 6 0 1 0 0 12 6 6 0 0 0 0-12zm0 1.5l1.323 2.68 2.957.43-2.14 2.085.505 2.946L12 17.25l-2.645 1.39.505-2.945-2.14-2.086 2.957-.43L12 10.5zM18 2v3l-1.363 1.138A9.935 9.935 0 0 0 13 5.049L13 2 18 2zm-7-.001v3.05a9.935 9.935 0 0 0-3.636 1.088L6 5V2l5-.001z"/></symbol><symbol viewBox="0 0 24 24" id="medal-2-line"><path fill="none" d="M0 0h24v24H0z"/><path d="M12 8.5l2.116 5.088 5.492.44-4.184 3.584 1.278 5.36L12 20.1l-4.702 2.872 1.278-5.36-4.184-3.584 5.492-.44L12 8.5zm0 5.207l-.739 1.777-1.916.153 1.46 1.251-.447 1.871L12 17.756l1.641 1.003-.446-1.87 1.459-1.252-1.915-.153L12 13.707zM8 2v9H6V2h2zm10 0v9h-2V2h2zm-5 0v5h-2V2h2z"/></symbol><symbol viewBox="0 0 24 24" id="delete-bin-2-line"><path fill="none" d="M0 0h24v24H0z"/><path d="M17 6h5v2h-2v13a1 1 0 0 1-1 1H5a1 1 0 0 1-1-1V8H2V6h5V3a1 1 0 0 1 1-1h8a1 1 0 0 1 1 1v3zm1 2H6v12h12V8zm-4.586 6l1.768 1.768-1.414 1.414L12 15.414l-1.768 1.768-1.414-1.414L10.586 14l-1.768-1.768 1.414-1.414L12 12.586l1.768-1.768 1.414 1.414L13.414 14zM9 4v2h6V4H9z"/></symbol><symbol viewBox="0 0 24 24" id="delete-bin-line"><path fill="none" d="M0 0h24v24H0z"/><path d="M17 6h5v2h-2v13a1 1 0 0 1-1 1H5a1 1 0 0 1-1-1V8H2V6h5V3a1 1 0 0 1 1-1h8a1 1 0 0 1 1 1v3zm1 2H6v12h12V8zm-9 3h2v6H9v-6zm4 0h2v6h-2v-6zM9 4v2h6V4H9z"/></symbol><symbol viewBox="0 0 24 24" id="earth-line"><path fill="none" d="M0 0h24v24H0z"/><path d="M6.235 6.453a8 8 0 0 0 8.817 12.944c.115-.75-.137-1.47-.24-1.722-.23-.56-.988-1.517-2.253-2.844-.338-.355-.316-.628-.195-1.437l.013-.091c.082-.554.22-.882 2.085-1.178.948-.15 1.197.228 1.542.753l.116.172c.328.48.571.59.938.756.165.075.37.17.645.325.652.373.652.794.652 1.716v.105c0 .391-.038.735-.098 1.034a8.002 8.002 0 0 0-3.105-12.341c-.553.373-1.312.902-1.577 1.265-.135.185-.327 1.132-.95 1.21-.162.02-.381.006-.613-.009-.622-.04-1.472-.095-1.744.644-.173.468-.203 1.74.356 2.4.09.105.107.3.046.519-.08.287-.241.462-.292.498-.096-.056-.288-.279-.419-.43-.313-.365-.705-.82-1.211-.96-.184-.051-.386-.093-.583-.135-.549-.115-1.17-.246-1.315-.554-.106-.226-.105-.537-.105-.865 0-.417 0-.888-.204-1.345a1.276 1.276 0 0 0-.306-.43zM12 22C6.477 22 2 17.523 2 12S6.477 2 12 2s10 4.477 10 10-4.477 10-10 10z"/></symbol><symbol viewBox="0 0 24 24" id="navigation-line"><path fill="none" d="M0 0h24v24H0z"/><path d="M4.965 5.096l3.546 12.41 3.04-6.08 5.637-2.255L4.965 5.096zM2.899 2.3l18.806 6.268a.5.5 0 0 1 .028.939L13 13l-4.425 8.85a.5.5 0 0 1-.928-.086L2.26 2.911A.5.5 0 0 1 2.9 2.3z"/></symbol><symbol viewBox="0 0 24 24" id="home-line"><path fill="none" d="M0 0h24v24H0z"/><path d="M21 20a1 1 0 0 1-1 1H4a1 1 0 0 1-1-1V9.49a1 1 0 0 1 .386-.79l8-6.222a1 1 0 0 1 1.228 0l8 6.222a1 1 0 0 1 .386.79V20zm-2-1V9.978l-7-5.444-7 5.444V19h14z"/></symbol><symbol viewBox="0 0 24 24" id="home-5-line"><path fill="none" d="M0 0h24v24H0z"/><path d="M13 19h6V9.978l-7-5.444-7 5.444V19h6v-6h2v6zm8 1a1 1 0 0 1-1 1H4a1 1 0 0 1-1-1V9.49a1 1 0 0 1 .386-.79l8-6.222a1 1 0 0 1 1.228 0l8 6.222a1 1 0 0 1 .386.79V20z"/></symbol><symbol viewBox="0 0 24 24" id="send-plane-line"><path fill="none" d="M0 0h24v24H0z"/><path d="M1.923 9.37c-.51-.205-.504-.51.034-.689l19.086-6.362c.529-.176.832.12.684.638l-5.454 19.086c-.15.529-.475.553-.717.07L11 13 1.923 9.37zm4.89-.2l5.636 2.255 3.04 6.082 3.546-12.41L6.812 9.17z"/></symbol><symbol viewBox="0 0 24 24" id="send-plane-2-line"><path fill="none" d="M0 0h24v24H0z"/><path d="M3.741 1.408l18.462 10.154a.5.5 0 0 1 0 .876L3.741 22.592A.5.5 0 0 1 3 22.154V1.846a.5.5 0 0 1 .741-.438zM5 13v6.617L18.85 12 5 4.383V11h5v2H5z"/></symbol><symbol viewBox="0 0 24 24" id="drag-move-2-line"><path fill="none" d="M0 0h24v24H0z"/><path d="M11 11V5.828L9.172 7.657 7.757 6.243 12 2l4.243 4.243-1.415 1.414L13 5.828V11h5.172l-1.829-1.828 1.414-1.415L22 12l-4.243 4.243-1.414-1.415L18.172 13H13v5.172l1.828-1.829 1.415 1.414L12 22l-4.243-4.243 1.415-1.414L11 18.172V13H5.828l1.829 1.828-1.414 1.415L2 12l4.243-4.243 1.414 1.415L5.828 11z"/></symbol><symbol viewBox="0 0 24 24" id="fingerprint-line"><path fill="none" d="M0 0h24v24H0z"/><path d="M17 13v1c0 2.77-.664 5.445-1.915 7.846l-.227.42-1.747-.974c1.16-2.08 1.81-4.41 1.882-6.836L15 14v-1h2zm-6-3h2v4l-.005.379a12.941 12.941 0 0 1-2.691 7.549l-.231.29-1.55-1.264a10.944 10.944 0 0 0 2.471-6.588L11 14v-4zm1-4a5 5 0 0 1 5 5h-2a3 3 0 0 0-6 0v3c0 2.235-.82 4.344-2.271 5.977l-.212.23-1.448-1.38a6.969 6.969 0 0 0 1.925-4.524L7 14v-3a5 5 0 0 1 5-5zm0-4a9 9 0 0 1 9 9v3c0 1.698-.202 3.37-.597 4.99l-.139.539-1.93-.526c.392-1.437.613-2.922.658-4.435L19 14v-3A7 7 0 0 0 7.808 5.394L6.383 3.968A8.962 8.962 0 0 1 12 2zM4.968 5.383l1.426 1.425a6.966 6.966 0 0 0-1.39 3.951L5 11 5.004 13c0 1.12-.264 2.203-.762 3.177l-.156.29-1.737-.992c.38-.665.602-1.407.646-2.183L3.004 13v-2a8.94 8.94 0 0 1 1.964-5.617z"/></symbol><symbol viewBox="0 0 24 24" id="article-line"><path fill="none" d="M0 0h24v24H0z"/><path d="M20 22H4a1 1 0 0 1-1-1V3a1 1 0 0 1 1-1h16a1 1 0 0 1 1 1v18a1 1 0 0 1-1 1zm-1-2V4H5v16h14zM7 6h4v4H7V6zm0 6h10v2H7v-2zm0 4h10v2H7v-2zm6-9h4v2h-4V7z"/></symbol><symbol viewBox="0 0 24 24" id="download-2-line"><path fill="none" d="M0 0h24v24H0z"/><path d="M13 10h5l-6 6-6-6h5V3h2v7zm-9 9h16v-7h2v8a1 1 0 0 1-1 1H3a1 1 0 0 1-1-1v-8h2v7z"/></symbol><symbol viewBox="0 0 24 24" id="upload-2-line"><path fill="none" d="M0 0h24v24H0z"/><path d="M4 19h16v-7h2v8a1 1 0 0 1-1 1H3a1 1 0 0 1-1-1v-8h2v7zm9-10v7h-2V9H6l6-6 6 6h-5z"/></symbol><symbol viewBox="0 0 24 24" id="time-line"><path fill="none" d="M0 0h24v24H0z"/><path d="M12 22C6.477 22 2 17.523 2 12S6.477 2 12 2s10 4.477 10 10-4.477 10-10 10zm0-2a8 8 0 1 0 0-16 8 8 0 0 0 0 16zm1-8h4v2h-6V7h2v5z"/></symbol><symbol viewBox="0 0 24 24" id="check-line"><path fill="none" d="M0 0h24v24H0z"/><path d="M10 15.172l9.192-9.193 1.415 1.414L10 18l-6.364-6.364 1.414-1.414z"/></symbol><symbol viewBox="0 0 24 24" id="checkbox-line"><path fill="none" d="M0 0h24v24H0z"/><path d="M4 3h16a1 1 0 0 1 1 1v16a1 1 0 0 1-1 1H4a1 1 0 0 1-1-1V4a1 1 0 0 1 1-1zm1 2v14h14V5H5zm6.003 11L6.76 11.757l1.414-1.414 2.829 2.829 5.656-5.657 1.415 1.414L11.003 16z"/></symbol><symbol viewBox="0 0 24 24" id="checkbox-indeterminate-line"><path fill="none" d="M0 0h24v24H0z"/><path d="M4 3h16a1 1 0 0 1 1 1v16a1 1 0 0 1-1 1H4a1 1 0 0 1-1-1V4a1 1 0 0 1 1-1zm1 2v14h14V5H5zm2 6h10v2H7v-2z"/></symbol><symbol viewBox="0 0 24 24" id="checkbox-indeterminate-fill"><path fill="none" d="M0 0h24v24H0z"/><path d="M4 3h16a1 1 0 0 1 1 1v16a1 1 0 0 1-1 1H4a1 1 0 0 1-1-1V4a1 1 0 0 1 1-1zm3 8v2h10v-2H7z"/></symbol><symbol viewBox="0 0 24 24" id="calendar-check-line"><path fill="none" d="M0 0h24v24H0z"/><path d="M9 1v2h6V1h2v2h4a1 1 0 0 1 1 1v16a1 1 0 0 1-1 1H3a1 1 0 0 1-1-1V4a1 1 0 0 1 1-1h4V1h2zm11 9H4v9h16v-9zm-4.964 1.136l1.414 1.414-4.95 4.95-3.536-3.536L9.38 12.55l2.121 2.122 3.536-3.536zM7 5H4v3h16V5h-3v1h-2V5H9v1H7V5z"/></symbol><symbol viewBox="0 0 24 24" id="hotel-line"><path fill="none" d="M0 0h24v24H0z"/><path d="M22 21H2v-2h1V4a1 1 0 0 1 1-1h14a1 1 0 0 1 1 1v5h2v10h1v2zm-5-2h2v-8h-6v8h2v-6h2v6zm0-10V5H5v14h6V9h6zM7 11h2v2H7v-2zm0 4h2v2H7v-2zm0-8h2v2H7V7z"/></symbol><symbol viewBox="0 0 24 24" id="community-line"><path fill="none" d="M0 0h24v24H0z"/><path d="M21 21H3a1 1 0 0 1-1-1v-7.513a1 1 0 0 1 .343-.754L6 8.544V4a1 1 0 0 1 1-1h14a1 1 0 0 1 1 1v16a1 1 0 0 1-1 1zM9 19h3v-6.058L8 9.454l-4 3.488V19h3v-4h2v4zm5 0h6V5H8v2.127c.234 0 .469.082.657.247l5 4.359a1 1 0 0 1 .343.754V19zm2-8h2v2h-2v-2zm0 4h2v2h-2v-2zm0-8h2v2h-2V7zm-4 0h2v2h-2V7z"/></symbol><symbol viewBox="0 0 24 24" id="image-add-line"><path fill="none" d="M0 0h24v24H0z"/><path d="M21 15v3h3v2h-3v3h-2v-3h-3v-2h3v-3h2zm.008-12c.548 0 .992.445.992.993V13h-2V5H4v13.999L14 9l3 3v2.829l-3-3L6.827 19H14v2H2.992A.993.993 0 0 1 2 20.007V3.993A1 1 0 0 1 2.992 3h18.016zM8 7a2 2 0 1 1 0 4 2 2 0 0 1 0-4z"/></symbol><symbol viewBox="0 0 24 24" id="add-box-line"><path fill="none" d="M0 0h24v24H0z"/><path d="M4 3h16a1 1 0 0 1 1 1v16a1 1 0 0 1-1 1H4a1 1 0 0 1-1-1V4a1 1 0 0 1 1-1zm1 2v14h14V5H5zm6 6V7h2v4h4v2h-4v4h-2v-4H7v-2h4z"/></symbol><symbol viewBox="0 0 24 24" id="file-add-line"><path fill="none" d="M0 0h24v24H0z"/><path d="M15 4H5v16h14V8h-4V4zM3 2.992C3 2.444 3.447 2 3.999 2H16l5 5v13.993A1 1 0 0 1 20.007 22H3.993A1 1 0 0 1 3 21.008V2.992zM11 11V8h2v3h3v2h-3v3h-2v-3H8v-2h3z"/></symbol><symbol viewBox="0 0 24 24" id="file-copy-2-line"><path fill="none" d="M0 0h24v24H0z"/><path d="M7 6V3a1 1 0 0 1 1-1h12a1 1 0 0 1 1 1v14a1 1 0 0 1-1 1h-3v3c0 .552-.45 1-1.007 1H4.007A1.001 1.001 0 0 1 3 21l.003-14c0-.552.45-1 1.006-1H7zM5.002 8L5 20h10V8H5.002zM9 6h8v10h2V4H9v2zm-2 5h6v2H7v-2zm0 4h6v2H7v-2z"/></symbol><symbol viewBox="0 0 24 24" id="compass-3-line"><path fill="none" d="M0 0h24v24H0z"/><path d="M12 22C6.477 22 2 17.523 2 12S6.477 2 12 2s10 4.477 10 10-4.477 10-10 10zm0-2a8 8 0 1 0 0-16 8 8 0 0 0 0 16zm4.5-12.5L14 14l-6.5 2.5L10 10l6.5-2.5zM12 13a1 1 0 1 0 0-2 1 1 0 0 0 0 2z"/></symbol><symbol viewBox="0 0 24 24" id="printer-line"><path fill="none" d="M0 0h24v24H0z"/><path d="M6 19H3a1 1 0 0 1-1-1V8a1 1 0 0 1 1-1h3V3a1 1 0 0 1 1-1h10a1 1 0 0 1 1 1v4h3a1 1 0 0 1 1 1v10a1 1 0 0 1-1 1h-3v2a1 1 0 0 1-1 1H7a1 1 0 0 1-1-1v-2zm0-2v-1a1 1 0 0 1 1-1h10a1 1 0 0 1 1 1v1h2V9H4v8h2zM8 4v3h8V4H8zm0 13v3h8v-3H8zm-3-7h3v2H5v-2z"/></symbol><symbol viewBox="0 0 24 24" id="draft-line"><path fill="none" d="M0 0L24 0 24 24 0 24z"/><path d="M20 2c.552 0 1 .448 1 1v3.757l-2 2V4H5v16h14v-2.758l2-2V21c0 .552-.448 1-1 1H4c-.552 0-1-.448-1-1V3c0-.552.448-1 1-1h16zm1.778 6.808l1.414 1.414L15.414 18l-1.416-.002.002-1.412 7.778-7.778zM13 12v2H8v-2h5zm3-4v2H8V8h8z"/></symbol><symbol viewBox="0 0 24 24" id="sticky-note-line"><path fill="none" d="M0 0h24v24H0z"/><path d="M21 15l-6 5.996L4.002 21A.998.998 0 0 1 3 20.007V3.993C3 3.445 3.445 3 3.993 3h16.014c.548 0 .993.456.993 1.002V15zM19 5H5v14h8v-5a1 1 0 0 1 .883-.993L14 13l5-.001V5zm-.829 9.999L15 15v3.169l3.171-3.17z"/></symbol><symbol viewBox="0 0 24 24" id="todo-line"><path fill="none" d="M0 0h24v24H0z"/><path d="M17 2h3a1 1 0 0 1 1 1v18a1 1 0 0 1-1 1H4a1 1 0 0 1-1-1V3a1 1 0 0 1 1-1h3V0h2v2h6V0h2v2zm0 2v2h-2V4H9v2H7V4H5v16h14V4h-2zM7 8h10v2H7V8zm0 4h10v2H7v-2z"/></symbol><symbol viewBox="0 0 24 24" id="task-line"><path fill="none" d="M0 0h24v24H0z"/><path d="M21 2.992v18.016a1 1 0 0 1-.993.992H3.993A.993.993 0 0 1 3 21.008V2.992A1 1 0 0 1 3.993 2h16.014c.548 0 .993.444.993.992zM19 4H5v16h14V4zm-7.707 9.121l4.243-4.242 1.414 1.414-5.657 5.657-3.89-3.89 1.415-1.414 2.475 2.475z"/></symbol><symbol viewBox="0 0 24 24" id="virus-line"><path fill="none" d="M0 0H24V24H0z"/><path d="M13.717 1.947l3.734 1.434-.717 1.867-.934-.359-.746 1.945c.779.462 1.444 1.094 1.945 1.846l1.903-.847-.407-.914 1.827-.813 1.627 3.654-1.827.813-.407-.913-1.902.847c.122.477.187.978.187 1.493 0 .406-.04.803-.117 1.187l1.944.746.358-.933 1.868.717-1.434 3.734-1.867-.717.358-.933-1.944-.747c-.462.779-1.094 1.444-1.846 1.945l.847 1.903.914-.407.813 1.827-3.654 1.627-.813-1.827.913-.407-.847-1.902c-.477.122-.978.187-1.493.187-.407 0-.804-.04-1.188-.118l-.746 1.945.934.358-.717 1.868-3.734-1.434.717-1.867.932.358.748-1.944C8.167 16.704 7.502 16.072 7 15.32l-1.903.847.407.914-1.827.813-1.627-3.654 1.827-.813.406.914 1.903-.848C6.065 13.016 6 12.515 6 12c0-.406.04-.803.117-1.187l-1.945-.746-.357.933-1.868-.717L3.381 6.55l1.867.717-.359.933 1.945.747C7.296 8.167 7.928 7.502 8.68 7l-.847-1.903-.914.407-.813-1.827L9.76 2.051l.813 1.827-.913.407.847 1.902C10.984 6.065 11.485 6 12 6c.406 0 .803.04 1.187.117l.745-1.945L13 3.815l.717-1.868zM12 8c-2.21 0-4 1.79-4 4s1.79 4 4 4 4-1.79 4-4-1.79-4-4-4zm-.5 4.866c.478.276.642.888.366 1.366-.276.478-.888.642-1.366.366-.478-.276-.642-.888-.366-1.366.276-.478.888-.642 1.366-.366zM14 11c.552 0 1 .448 1 1s-.448 1-1 1-1-.448-1-1 .448-1 1-1zm-2.134-1.232c.276.478.112 1.09-.366 1.366s-1.09.112-1.366-.366-.112-1.09.366-1.366 1.09-.112 1.366.366z"/></symbol><symbol viewBox="0 0 24 24" id="surgical-mask-line"><path fill="none" d="M0 0H24V24H0z"/><path d="M12.485 3.121l7.758 1.94c.445.11.757.51.757.97V7h1c1.1 0 2 .9 2 2v3c0 1.657-1.343 3-3 3h-.421c-.535 1.35-1.552 2.486-2.896 3.158l-4.789 2.395c-.563.281-1.225.281-1.788 0l-4.79-2.395C4.974 17.486 3.957 16.35 3.422 15H3c-1.657 0-3-1.343-3-3V9c0-1.105.895-2 2-2h1v-.97c0-.458.312-.858.757-.97l7.758-1.939c.318-.08.652-.08.97 0zM12 5.061l-7 1.75v5.98c0 1.516.856 2.9 2.211 3.579L12 18.764l4.789-2.394C18.144 15.692 19 14.307 19 12.792v-5.98l-7-1.75zM3 9H2v3c0 .552.448 1 1 1V9zm19 0h-1v4c.552 0 1-.448 1-1V9z"/></symbol><symbol viewBox="0 0 24 24" id="thermometer-line"><path fill="none" d="M0 0H24V24H0z"/><path d="M20.556 3.444c1.562 1.562 1.562 4.094 0 5.657l-8.2 8.2c-.642.642-1.484 1.047-2.387 1.147l-3.378.374-2.298 2.3c-.39.39-1.024.39-1.414 0-.39-.391-.39-1.024 0-1.415l2.298-2.299.375-3.377c.1-.903.505-1.745 1.147-2.387l8.2-8.2c1.563-1.562 4.095-1.562 5.657 0zm-4.242 1.414l-8.2 8.2c-.322.321-.524.742-.574 1.193l-.276 2.485 2.485-.276c.45-.05.872-.252 1.193-.573l.422-.423L9.95 14.05l1.414-1.414 1.414 1.414 1.414-1.414-1.414-1.414 1.414-1.414 1.415 1.414 1.414-1.415-1.414-1.414L17.02 6.98l1.414 1.414.707-.707c.781-.78.781-2.047 0-2.828-.78-.781-2.047-.781-2.828 0z"/></symbol><symbol viewBox="0 0 24 24" id="mental-health-line"><path fill="none" d="M0 0H24V24H0z"/><path d="M11 2c4.068 0 7.426 3.036 7.934 6.965l2.25 3.539c.148.233.118.58-.225.728L19 14.07V17c0 1.105-.895 2-2 2h-1.999L15 22H6v-3.694c0-1.18-.436-2.297-1.244-3.305C3.657 13.631 3 11.892 3 10c0-4.418 3.582-8 8-8zm0 2c-3.314 0-6 2.686-6 6 0 1.385.468 2.693 1.316 3.75C7.41 15.114 8 16.667 8 18.306V20h5l.002-3H17v-4.248l1.55-.664-1.543-2.425-.057-.442C16.566 6.251 14.024 4 11 4zm-.53 3.763l.53.53.53-.53c.684-.684 1.792-.684 2.475 0 .684.683.684 1.791 0 2.474L11 13.243l-3.005-3.006c-.684-.683-.684-1.791 0-2.474.683-.684 1.791-.684 2.475 0z"/></symbol><symbol viewBox="0 0 24 24" id="heart-add-line"><path fill="none" d="M0 0H24V24H0z"/><path d="M19 14v3h3v2h-3.001L19 22h-2l-.001-3H14v-2h3v-3h2zm1.243-9.243c2.262 2.268 2.34 5.88.236 8.235l-1.42-1.418c1.331-1.524 1.261-3.914-.232-5.404-1.503-1.499-3.92-1.563-5.49-.153l-1.335 1.198-1.336-1.197c-1.575-1.412-3.991-1.35-5.494.154-1.49 1.49-1.565 3.875-.192 5.451l8.432 8.446L12 21.485 3.52 12.993c-2.104-2.356-2.025-5.974.236-8.236 2.265-2.264 5.888-2.34 8.244-.228 2.349-2.109 5.979-2.039 8.242.228z"/></symbol><symbol viewBox="0 0 24 24" id="medicine-bottle-line"><path fill="none" d="M0 0H24V24H0z"/><path d="M19 2v2h-2v3c1.657 0 3 1.343 3 3v11c0 .552-.448 1-1 1H5c-.552 0-1-.448-1-1V10c0-1.657 1.343-3 3-3V4H5V2h14zm-2 7H7c-.552 0-1 .448-1 1v10h12V10c0-.552-.448-1-1-1zm-4 2v2h2v2h-2.001L13 17h-2l-.001-2H9v-2h2v-2h2zm2-7H9v3h6V4z"/></symbol><symbol viewBox="0 0 24 24" id="flask-line"><path fill="none" d="M0 0H24V24H0z"/><path d="M16 2v2h-1v3.243c0 1.158.251 2.301.736 3.352l4.282 9.276c.347.753.018 1.644-.734 1.99-.197.092-.411.139-.628.139H5.344c-.828 0-1.5-.672-1.5-1.5 0-.217.047-.432.138-.629l4.282-9.276C8.749 9.545 9 8.401 9 7.243V4H8V2h8zm-2.612 8.001h-2.776c-.104.363-.23.721-.374 1.071l-.158.361L6.125 20h11.749l-3.954-8.567c-.214-.464-.392-.943-.532-1.432zM11 7.243c0 .253-.01.506-.029.758h2.058c-.01-.121-.016-.242-.021-.364L13 7.243V4h-2v3.243z"/></symbol><symbol viewBox="0 0 24 24" id="test-tube-line"><path fill="none" d="M0 0H24V24H0z"/><path d="M17 2v2h-1v14c0 2.21-1.79 4-4 4s-4-1.79-4-4V4H7V2h10zm-3 8h-4v8c0 1.105.895 2 2 2s2-.895 2-2v-8zm-1 5c.552 0 1 .448 1 1s-.448 1-1 1-1-.448-1-1 .448-1 1-1zm-2-3c.552 0 1 .448 1 1s-.448 1-1 1-1-.448-1-1 .448-1 1-1zm3-8h-4v4h4V4z"/></symbol><symbol viewBox="0 0 24 24" id="hand-sanitizer-line"><path fill="none" d="M0 0H24V24H0z"/><path d="M17 2v2l-4-.001V6h3v2c2.21 0 4 1.79 4 4v8c0 1.105-.895 2-2 2H6c-1.105 0-2-.895-2-2v-8c0-2.21 1.79-4 4-4V6h3V3.999L7.5 4c-.63 0-1.37.49-2.2 1.6L3.7 4.4C4.87 2.84 6.13 2 7.5 2H17zm-1 8H8c-1.105 0-2 .895-2 2v8h12v-8c0-1.105-.895-2-2-2zm-3 2v2h2v2h-2.001L13 18h-2l-.001-2H9v-2h2v-2h2z"/></symbol><symbol viewBox="0 0 24 24" id="lungs-line"><path fill="none" d="M0 0H24V24H0z"/><path d="M22.001 17c-.001 4-.001 4-4 4-4 0-5-3-5-6 0-.378-.018-.918-.026-1.55l2.023 1.169L15 15c0 2.776.816 4 3 4 1.14 0 1.61-.007 1.963-.038.03-.351.037-.822.037-1.962 0-3.205-.703-6.033-1.835-7.9-.838-1.382-1.613-1.843-2.032-1.703-.293.098-.605.65-.831 1.623l-1.79-1.033c.369-1.197.982-2.151 1.988-2.487 3-1 6.503 4 6.5 11.5zM8.5 5.5c1.007.336 1.62 1.29 1.989 2.487L8.699 9.02c-.226-.973-.539-1.525-.831-1.623-.42-.14-1.195.32-2.032 1.702C4.703 10.967 4 13.795 4 17c0 1.14.007 1.61.038 1.962.351.031.822.038 1.962.038 2.184 0 3-1.224 3-4l.004-.382 2.023-1.168c-.01.633-.027 1.172-.027 1.55 0 3-1 6-5 6s-4 0-4-4C2 9.5 5.5 4.5 8.5 5.5zM13 2v7.422l4.696 2.712-1 1.732L12 11.155l-4.696 2.711-1-1.732L11 9.422V2h2z"/></symbol><symbol viewBox="0 0 24 24" id="psychotherapy-line"><path fill="none" d="M0 0H24V24H0z"/><path d="M11 2c4.068 0 7.426 3.036 7.934 6.965l2.25 3.539c.148.233.118.58-.225.728L19 14.07V17c0 1.105-.895 2-2 2h-1.999L15 22H6v-3.694c0-1.18-.436-2.297-1.244-3.305C3.657 13.631 3 11.892 3 10c0-4.418 3.582-8 8-8zm0 2c-3.314 0-6 2.686-6 6 0 1.385.468 2.693 1.316 3.75C7.41 15.114 8 16.667 8 18.306V20h5l.002-3H17v-4.248l1.55-.664-1.543-2.425-.057-.442C16.566 6.251 14.024 4 11 4zm0 3c.552 0 1 .448 1 1v1h1c.552 0 1 .448 1 1s-.448 1-1 1h-1v1c0 .552-.448 1-1 1s-1-.448-1-1v-1.001L9 11c-.552 0-1-.448-1-1s.448-1 1-1l1-.001V8c0-.552.448-1 1-1z"/></symbol><symbol viewBox="0 0 24 24" id="infrared-thermometer-line"><path fill="none" d="M0 0H24V24H0z"/><path d="M21 2v9h-3.001L18 12c0 2.21-1.79 4-4 4h-1.379l-.613 3.111.911 1.321c.314.455.2 1.078-.255 1.391-.167.115-.365.177-.568.177H3l2.313-10.024L3 11l4-9h14zm-2 2H8.3L5.655 9.95l1.985.837L5.514 20h4.678l-.309-.448L11.96 9H19V4zm-3.001 7h-2.394l-.591 3H14c1.105 0 2-.895 2-2l-.001-1z"/></symbol><symbol viewBox="0 0 24 24" id="zzz-line"><path fill="none" d="M0 0H24V24H0z"/><path d="M11 11v2l-5.327 6H11v2H3v-2l5.326-6H3v-2h8zm10-8v2l-5.327 6H21v2h-8v-2l5.326-6H13V3h8z"/></symbol><symbol viewBox="0 0 24 24" id="pulse-line"><path fill="none" d="M0 0H24V24H0z"/><path d="M9 7.539L15 21.539 18.659 13 23 13 23 11 17.341 11 15 16.461 9 2.461 5.341 11 1 11 1 13 6.659 13z"/></symbol><symbol viewBox="0 0 24 24" id="android-line"><path fill="none" d="M0 0h24v24H0z"/><path d="M19 13H5v7h14v-7zm0-2a7 7 0 0 0-14 0h14zM6.382 3.968A8.962 8.962 0 0 1 12 2c2.125 0 4.078.736 5.618 1.968l1.453-1.453 1.414 1.414-1.453 1.453A8.962 8.962 0 0 1 21 11v10a1 1 0 0 1-1 1H4a1 1 0 0 1-1-1V11c0-2.125.736-4.078 1.968-5.618L3.515 3.93l1.414-1.414 1.453 1.453zM9 9a1 1 0 1 1 0-2 1 1 0 0 1 0 2zm6 0a1 1 0 1 1 0-2 1 1 0 0 1 0 2z"/></symbol><symbol viewBox="0 0 24 24" id="facebook-circle-line"><path fill="none" d="M0 0h24v24H0z"/><path d="M13 19.938A8.001 8.001 0 0 0 12 4a8 8 0 0 0-1 15.938V14H9v-2h2v-1.654c0-1.337.14-1.822.4-2.311A2.726 2.726 0 0 1 12.536 6.9c.382-.205.857-.328 1.687-.381.329-.021.755.005 1.278.08v1.9H15c-.917 0-1.296.043-1.522.164a.727.727 0 0 0-.314.314c-.12.226-.164.45-.164 1.368V12h2.5l-.5 2h-2v5.938zM12 22C6.477 22 2 17.523 2 12S6.477 2 12 2s10 4.477 10 10-4.477 10-10 10z"/></symbol><symbol viewBox="0 0 24 24" id="facebook-box-line"><path fill="none" d="M0 0h24v24H0z"/><path d="M14 19h5V5H5v14h7v-5h-2v-2h2v-1.654c0-1.337.14-1.822.4-2.311A2.726 2.726 0 0 1 13.536 6.9c.382-.205.857-.328 1.687-.381.329-.021.755.005 1.278.08v1.9H16c-.917 0-1.296.043-1.522.164a.727.727 0 0 0-.314.314c-.12.226-.164.45-.164 1.368V12h2.5l-.5 2h-2v5zM4 3h16a1 1 0 0 1 1 1v16a1 1 0 0 1-1 1H4a1 1 0 0 1-1-1V4a1 1 0 0 1 1-1z"/></symbol><symbol viewBox="0 0 24 24" id="google-line"><path fill="none" d="M0 0h24v24H0z"/><path d="M12 11h8.533c.044.385.067.78.067 1.184 0 2.734-.98 5.036-2.678 6.6-1.485 1.371-3.518 2.175-5.942 2.175A8.976 8.976 0 0 1 3 11.98 8.976 8.976 0 0 1 11.98 3c2.42 0 4.453.89 6.008 2.339L16.526 6.8C15.368 5.681 13.803 5 12 5a7 7 0 1 0 0 14c3.526 0 6.144-2.608 6.577-6H12v-2z"/></symbol><symbol viewBox="0 0 24 24" id="instagram-line"><path fill="none" d="M0 0h24v24H0z"/><path d="M12 9a3 3 0 1 0 0 6 3 3 0 0 0 0-6zm0-2a5 5 0 1 1 0 10 5 5 0 0 1 0-10zm6.5-.25a1.25 1.25 0 0 1-2.5 0 1.25 1.25 0 0 1 2.5 0zM12 4c-2.474 0-2.878.007-4.029.058-.784.037-1.31.142-1.798.332-.434.168-.747.369-1.08.703a2.89 2.89 0 0 0-.704 1.08c-.19.49-.295 1.015-.331 1.798C4.006 9.075 4 9.461 4 12c0 2.474.007 2.878.058 4.029.037.783.142 1.31.331 1.797.17.435.37.748.702 1.08.337.336.65.537 1.08.703.494.191 1.02.297 1.8.333C9.075 19.994 9.461 20 12 20c2.474 0 2.878-.007 4.029-.058.782-.037 1.309-.142 1.797-.331.433-.169.748-.37 1.08-.702.337-.337.538-.65.704-1.08.19-.493.296-1.02.332-1.8.052-1.104.058-1.49.058-4.029 0-2.474-.007-2.878-.058-4.029-.037-.782-.142-1.31-.332-1.798a2.911 2.911 0 0 0-.703-1.08 2.884 2.884 0 0 0-1.08-.704c-.49-.19-1.016-.295-1.798-.331C14.925 4.006 14.539 4 12 4zm0-2c2.717 0 3.056.01 4.122.06 1.065.05 1.79.217 2.428.465.66.254 1.216.598 1.772 1.153a4.908 4.908 0 0 1 1.153 1.772c.247.637.415 1.363.465 2.428.047 1.066.06 1.405.06 4.122 0 2.717-.01 3.056-.06 4.122-.05 1.065-.218 1.79-.465 2.428a4.883 4.883 0 0 1-1.153 1.772 4.915 4.915 0 0 1-1.772 1.153c-.637.247-1.363.415-2.428.465-1.066.047-1.405.06-4.122.06-2.717 0-3.056-.01-4.122-.06-1.065-.05-1.79-.218-2.428-.465a4.89 4.89 0 0 1-1.772-1.153 4.904 4.904 0 0 1-1.153-1.772c-.248-.637-.415-1.363-.465-2.428C2.013 15.056 2 14.717 2 12c0-2.717.01-3.056.06-4.122.05-1.066.217-1.79.465-2.428a4.88 4.88 0 0 1 1.153-1.772A4.897 4.897 0 0 1 5.45 2.525c.638-.248 1.362-.415 2.428-.465C8.944 2.013 9.283 2 12 2z"/></symbol><symbol viewBox="0 0 24 24" id="linkedin-line"><path fill="none" d="M0 0h24v24H0z"/><path d="M12 9.55C12.917 8.613 14.111 8 15.5 8a5.5 5.5 0 0 1 5.5 5.5V21h-2v-7.5a3.5 3.5 0 0 0-7 0V21h-2V8.5h2v1.05zM5 6.5a1.5 1.5 0 1 1 0-3 1.5 1.5 0 0 1 0 3zm-1 2h2V21H4V8.5z"/></symbol><symbol viewBox="0 0 24 24" id="messenger-line"><path fill="none" d="M0 0h24v24H0z"/><path d="M7.764 19.225c.59-.26 1.25-.309 1.868-.139.77.21 1.565.316 2.368.314 4.585 0 8-3.287 8-7.7S16.585 4 12 4s-8 3.287-8 7.7c0 2.27.896 4.272 2.466 5.676a2.8 2.8 0 0 1 .942 2.006l.356-.157zM12 2c5.634 0 10 4.127 10 9.7 0 5.573-4.366 9.7-10 9.7a10.894 10.894 0 0 1-2.895-.384.8.8 0 0 0-.534.039l-1.984.876a.8.8 0 0 1-1.123-.707l-.055-1.78a.797.797 0 0 0-.268-.57C3.195 17.135 2 14.617 2 11.7 2 6.127 6.367 2 12 2zM5.995 14.537l2.937-4.66a1.5 1.5 0 0 1 2.17-.4l2.336 1.75a.6.6 0 0 0 .723 0l3.155-2.396c.421-.319.971.185.689.633l-2.937 4.66a1.5 1.5 0 0 1-2.17.4l-2.336-1.75a.6.6 0 0 0-.723 0l-3.155 2.395c-.421.319-.971-.185-.689-.633z"/></symbol><symbol viewBox="0 0 24 24" id="linkedin-box-line"><path fill="none" d="M0 0h24v24H0z"/><path d="M4 3h16a1 1 0 0 1 1 1v16a1 1 0 0 1-1 1H4a1 1 0 0 1-1-1V4a1 1 0 0 1 1-1zm1 2v14h14V5H5zm2.5 4a1.5 1.5 0 1 1 0-3 1.5 1.5 0 0 1 0 3zm-1 1h2v7.5h-2V10zm5.5.43c.584-.565 1.266-.93 2-.93 2.071 0 3.5 1.679 3.5 3.75v4.25h-2v-4.25a1.75 1.75 0 0 0-3.5 0v4.25h-2V10h2v.43z"/></symbol><symbol viewBox="0 0 24 24" id="twitter-line"><path fill="none" d="M0 0h24v24H0z"/><path d="M15.3 5.55a2.9 2.9 0 0 0-2.9 2.847l-.028 1.575a.6.6 0 0 1-.68.583l-1.561-.212c-2.054-.28-4.022-1.226-5.91-2.799-.598 3.31.57 5.603 3.383 7.372l1.747 1.098a.6.6 0 0 1 .034.993L7.793 18.17c.947.059 1.846.017 2.592-.131 4.718-.942 7.855-4.492 7.855-10.348 0-.478-1.012-2.141-2.94-2.141zm-4.9 2.81a4.9 4.9 0 0 1 8.385-3.355c.711-.005 1.316.175 2.669-.645-.335 1.64-.5 2.352-1.214 3.331 0 7.642-4.697 11.358-9.463 12.309-3.268.652-8.02-.419-9.382-1.841.694-.054 3.514-.357 5.144-1.55C5.16 15.7-.329 12.47 3.278 3.786c1.693 1.977 3.41 3.323 5.15 4.037 1.158.475 1.442.465 1.973.538z"/></symbol><symbol viewBox="0 0 24 24" id="whatsapp-line"><path fill="none" d="M0 0h24v24H0z"/><path d="M7.253 18.494l.724.423A7.953 7.953 0 0 0 12 20a8 8 0 1 0-8-8c0 1.436.377 2.813 1.084 4.024l.422.724-.653 2.401 2.4-.655zM2.004 22l1.352-4.968A9.954 9.954 0 0 1 2 12C2 6.477 6.477 2 12 2s10 4.477 10 10-4.477 10-10 10a9.954 9.954 0 0 1-5.03-1.355L2.004 22zM8.391 7.308c.134-.01.269-.01.403-.004.054.004.108.01.162.016.159.018.334.115.393.249.298.676.588 1.357.868 2.04.062.152.025.347-.093.537a4.38 4.38 0 0 1-.263.372c-.113.145-.356.411-.356.411s-.099.118-.061.265c.014.056.06.137.102.205l.059.095c.256.427.6.86 1.02 1.268.12.116.237.235.363.346.468.413.998.75 1.57 1l.005.002c.085.037.128.057.252.11.062.026.126.049.191.066a.35.35 0 0 0 .367-.13c.724-.877.79-.934.796-.934v.002a.482.482 0 0 1 .378-.127c.06.004.121.015.177.04.531.243 1.4.622 1.4.622l.582.261c.098.047.187.158.19.265.004.067.01.175-.013.373-.032.259-.11.57-.188.733a1.155 1.155 0 0 1-.21.302 2.378 2.378 0 0 1-.33.288 3.71 3.71 0 0 1-.125.09 5.024 5.024 0 0 1-.383.22 1.99 1.99 0 0 1-.833.23c-.185.01-.37.024-.556.014-.008 0-.568-.087-.568-.087a9.448 9.448 0 0 1-3.84-2.046c-.226-.199-.435-.413-.649-.626-.89-.885-1.562-1.84-1.97-2.742A3.47 3.47 0 0 1 6.9 9.62a2.729 2.729 0 0 1 .564-1.68c.073-.094.142-.192.261-.305.127-.12.207-.184.294-.228a.961.961 0 0 1 .371-.1z"/></symbol><symbol viewBox="0 0 24 24" id="youtube-line"><path fill="none" d="M0 0h24v24H0z"/><path d="M19.606 6.995c-.076-.298-.292-.523-.539-.592C18.63 6.28 16.5 6 12 6s-6.628.28-7.069.403c-.244.068-.46.293-.537.592C4.285 7.419 4 9.196 4 12s.285 4.58.394 5.006c.076.297.292.522.538.59C5.372 17.72 7.5 18 12 18s6.629-.28 7.069-.403c.244-.068.46-.293.537-.592C19.715 16.581 20 14.8 20 12s-.285-4.58-.394-5.005zm1.937-.497C22 8.28 22 12 22 12s0 3.72-.457 5.502c-.254.985-.997 1.76-1.938 2.022C17.896 20 12 20 12 20s-5.893 0-7.605-.476c-.945-.266-1.687-1.04-1.938-2.022C2 15.72 2 12 2 12s0-3.72.457-5.502c.254-.985.997-1.76 1.938-2.022C6.107 4 12 4 12 4s5.896 0 7.605.476c.945.266 1.687 1.04 1.938 2.022zM10 15.5v-7l6 3.5-6 3.5z"/></symbol><symbol viewBox="0 0 24 24" id="direction-line"><path fill="none" d="M0 0h24v24H0z"/><path d="M12 3.515L3.515 12 12 20.485 20.485 12 12 3.515zm.707-2.122l9.9 9.9a1 1 0 0 1 0 1.414l-9.9 9.9a1 1 0 0 1-1.414 0l-9.9-9.9a1 1 0 0 1 0-1.414l9.9-9.9a1 1 0 0 1 1.414 0zM13 10V7.5l3.5 3.5-3.5 3.5V12h-3v3H8v-4a1 1 0 0 1 1-1h4z"/></symbol><symbol viewBox="0 0 24 24" id="cup-line"><path fill="none" d="M0 0h24v24H0z"/><path d="M16 13V5H6v8a2 2 0 0 0 2 2h6a2 2 0 0 0 2-2zM5 3h15a2 2 0 0 1 2 2v3a2 2 0 0 1-2 2h-2v3a4 4 0 0 1-4 4H8a4 4 0 0 1-4-4V4a1 1 0 0 1 1-1zm13 2v3h2V5h-2zM2 19h18v2H2v-2z"/></symbol><symbol viewBox="0 0 24 24" id="heart-3-line"><path fill="none" d="M0 0H24V24H0z"/><path d="M16.5 3C19.538 3 22 5.5 22 9c0 7-7.5 11-10 12.5C9.5 20 2 16 2 9c0-3.5 2.5-6 5.5-6C9.36 3 11 4 12 5c1-1 2.64-2 4.5-2zm-3.566 15.604c.881-.556 1.676-1.109 2.42-1.701C18.335 14.533 20 11.943 20 9c0-2.36-1.537-4-3.5-4-1.076 0-2.24.57-3.086 1.414L12 7.828l-1.414-1.414C9.74 5.57 8.576 5 7.5 5 5.56 5 4 6.656 4 9c0 2.944 1.666 5.533 4.645 7.903.745.592 1.54 1.145 2.421 1.7.299.189.595.37.934.572.339-.202.635-.383.934-.571z"/></symbol><symbol viewBox="0 0 24 24" id="focus-3-line"><path fill="none" d="M0 0h24v24H0z"/><path d="M13 1l.001 3.062A8.004 8.004 0 0 1 19.938 11H23v2l-3.062.001a8.004 8.004 0 0 1-6.937 6.937L13 23h-2v-3.062a8.004 8.004 0 0 1-6.938-6.937L1 13v-2h3.062A8.004 8.004 0 0 1 11 4.062V1h2zm-1 5a6 6 0 1 0 0 12 6 6 0 0 0 0-12zm0 4a2 2 0 1 1 0 4 2 2 0 0 1 0-4z"/></symbol><symbol viewBox="0 0 24 24" id="pie-chart-2-line"><path fill="none" d="M0 0h24v24H0z"/><path d="M11 .543c.33-.029.663-.043 1-.043C18.351.5 23.5 5.649 23.5 12c0 .337-.014.67-.043 1h-1.506c-.502 5.053-4.766 9-9.951 9-5.523 0-10-4.477-10-10 0-5.185 3.947-9.449 9-9.95V.542zM11 13V4.062A8.001 8.001 0 0 0 12 20a8.001 8.001 0 0 0 7.938-7H11zm10.448-2A9.503 9.503 0 0 0 13 2.552V11h8.448z"/></symbol><symbol viewBox="0 0 24 24" id="message-2-line"><path fill="none" d="M0 0h24v24H0z"/><path d="M6.455 19L2 22.5V4a1 1 0 0 1 1-1h18a1 1 0 0 1 1 1v14a1 1 0 0 1-1 1H6.455zm-.692-2H20V5H4v13.385L5.763 17zM11 10h2v2h-2v-2zm-4 0h2v2H7v-2zm8 0h2v2h-2v-2z"/></symbol><symbol viewBox="0 0 24 24" id="coupon-2-line"><path fill="none" d="M0 0h24v24H0z"/><path d="M2 9.5V4a1 1 0 0 1 1-1h18a1 1 0 0 1 1 1v5.5a2.5 2.5 0 1 0 0 5V20a1 1 0 0 1-1 1H3a1 1 0 0 1-1-1v-5.5a2.5 2.5 0 1 0 0-5zM14 5H4v2.968a4.5 4.5 0 0 1 0 8.064V19h10V5zm2 0v14h4v-2.968a4.5 4.5 0 0 1 0-8.064V5h-4z"/></symbol><symbol viewBox="0 0 24 24" id="user-3-line"><path fill="none" d="M0 0h24v24H0z"/><path d="M20 22h-2v-2a3 3 0 0 0-3-3H9a3 3 0 0 0-3 3v2H4v-2a5 5 0 0 1 5-5h6a5 5 0 0 1 5 5v2zm-8-9a6 6 0 1 1 0-12 6 6 0 0 1 0 12zm0-2a4 4 0 1 0 0-8 4 4 0 0 0 0 8z"/></symbol><symbol viewBox="0 0 24 24" id="eye-close-line"><path fill="none" d="M0 0h24v24H0z"/><path d="M9.342 18.782l-1.931-.518.787-2.939a10.988 10.988 0 0 1-3.237-1.872l-2.153 2.154-1.415-1.415 2.154-2.153a10.957 10.957 0 0 1-2.371-5.07l1.968-.359C3.903 10.812 7.579 14 12 14c4.42 0 8.097-3.188 8.856-7.39l1.968.358a10.957 10.957 0 0 1-2.37 5.071l2.153 2.153-1.415 1.415-2.153-2.154a10.988 10.988 0 0 1-3.237 1.872l.787 2.94-1.931.517-.788-2.94a11.072 11.072 0 0 1-3.74 0l-.788 2.94z"/></symbol><symbol viewBox="0 0 24 24" id="list-check"><path fill="none" d="M0 0h24v24H0z"/><path d="M8 4h13v2H8V4zm-5-.5h3v3H3v-3zm0 7h3v3H3v-3zm0 7h3v3H3v-3zM8 11h13v2H8v-2zm0 7h13v2H8v-2z"/></symbol><symbol viewBox="0 0 24 24" id="settings-3-line"><path fill="none" d="M0 0h24v24H0z"/><path d="M3.34 17a10.018 10.018 0 0 1-.978-2.326 3 3 0 0 0 .002-5.347A9.99 9.99 0 0 1 4.865 4.99a3 3 0 0 0 4.631-2.674 9.99 9.99 0 0 1 5.007.002 3 3 0 0 0 4.632 2.672c.579.59 1.093 1.261 1.525 2.01.433.749.757 1.53.978 2.326a3 3 0 0 0-.002 5.347 9.99 9.99 0 0 1-2.501 4.337 3 3 0 0 0-4.631 2.674 9.99 9.99 0 0 1-5.007-.002 3 3 0 0 0-4.632-2.672A10.018 10.018 0 0 1 3.34 17zm5.66.196a4.993 4.993 0 0 1 2.25 2.77c.499.047 1 .048 1.499.001A4.993 4.993 0 0 1 15 17.197a4.993 4.993 0 0 1 3.525-.565c.29-.408.54-.843.748-1.298A4.993 4.993 0 0 1 18 12c0-1.26.47-2.437 1.273-3.334a8.126 8.126 0 0 0-.75-1.298A4.993 4.993 0 0 1 15 6.804a4.993 4.993 0 0 1-2.25-2.77c-.499-.047-1-.048-1.499-.001A4.993 4.993 0 0 1 9 6.803a4.993 4.993 0 0 1-3.525.565 7.99 7.99 0 0 0-.748 1.298A4.993 4.993 0 0 1 6 12c0 1.26-.47 2.437-1.273 3.334a8.126 8.126 0 0 0 .75 1.298A4.993 4.993 0 0 1 9 17.196zM12 15a3 3 0 1 1 0-6 3 3 0 0 1 0 6zm0-2a1 1 0 1 0 0-2 1 1 0 0 0 0 2z"/></symbol><symbol viewBox="0 0 24 24" id="indeterminate-circle-line"><path fill="none" d="M0 0h24v24H0z"/><path d="M12 22C6.477 22 2 17.523 2 12S6.477 2 12 2s10 4.477 10 10-4.477 10-10 10zm0-2a8 8 0 1 0 0-16 8 8 0 0 0 0 16zm-5-9h10v2H7v-2z"/></symbol><symbol viewBox="0 0 24 24" id="nurse-fill"><path fill="none" d="M0 0H24V24H0z"/><path d="M14.956 15.564c2.659 1.058 4.616 3.5 4.982 6.436H4.062c.366-2.936 2.323-5.378 4.982-6.436L12 20l2.956-4.436zM18 2v6c0 3.314-2.686 6-6 6s-6-2.686-6-6V2h12zm-2 6H8c0 2.21 1.79 4 4 4s4-1.79 4-4z"/></symbol><symbol viewBox="0 0 24 24" id="group-fill"><path fill="none" d="M0 0h24v24H0z"/><path d="M2 22a8 8 0 1 1 16 0H2zm8-9c-3.315 0-6-2.685-6-6s2.685-6 6-6 6 2.685 6 6-2.685 6-6 6zm7.363 2.233A7.505 7.505 0 0 1 22.983 22H20c0-2.61-1-4.986-2.637-6.767zm-2.023-2.276A7.98 7.98 0 0 0 18 7a7.964 7.964 0 0 0-1.015-3.903A5 5 0 0 1 21 8a4.999 4.999 0 0 1-5.66 4.957z"/></symbol><symbol viewBox="0 0 24 24" id="hospital-fill"><path fill="none" d="M0 0h24v24H0z"/><path d="M21 20h2v2H1v-2h2V3a1 1 0 0 1 1-1h16a1 1 0 0 1 1 1v17zM11 8H9v2h2v2h2v-2h2V8h-2V6h-2v2zm3 12h2v-6H8v6h2v-4h4v4z"/></symbol><symbol viewBox="0 0 24 24" id="logout-box-r-line"><path fill="none" d="M0 0h24v24H0z"/><path d="M5 22a1 1 0 0 1-1-1V3a1 1 0 0 1 1-1h14a1 1 0 0 1 1 1v3h-2V4H6v16h12v-2h2v3a1 1 0 0 1-1 1H5zm13-6v-3h-7v-2h7V8l5 4-5 4z"/></symbol><symbol viewBox="0 0 24 24" id="key-line"><path fill="none" d="M0 0h24v24H0z"/><path d="M12.917 13A6.002 6.002 0 0 1 1 12a6 6 0 0 1 11.917-1H23v2h-2v4h-2v-4h-2v4h-2v-4h-2.083zM7 16a4 4 0 1 0 0-8 4 4 0 0 0 0 8z"/></symbol><symbol viewBox="0 0 24 24" id="error-warning-line"><path fill="none" d="M0 0h24v24H0z"/><path d="M12 22C6.477 22 2 17.523 2 12S6.477 2 12 2s10 4.477 10 10-4.477 10-10 10zm0-2a8 8 0 1 0 0-16 8 8 0 0 0 0 16zm-1-5h2v2h-2v-2zm0-8h2v6h-2V7z"/></symbol><symbol viewBox="0 0 24 24" id="filter-line"><path fill="none" d="M0 0H24V24H0z"/><path d="M21 4v2h-1l-5 7.5V22H9v-8.5L4 6H3V4h18zM6.404 6L11 12.894V20h2v-7.106L17.596 6H6.404z"/></symbol><symbol viewBox="0 0 24 24" id="price-tag-3-line"><path fill="none" d="M0 0h24v24H0z"/><path d="M10.9 2.1l9.899 1.415 1.414 9.9-9.192 9.192a1 1 0 0 1-1.414 0l-9.9-9.9a1 1 0 0 1 0-1.414L10.9 2.1zm.707 2.122L3.828 12l8.486 8.485 7.778-7.778-1.06-7.425-7.425-1.06zm2.12 6.364a2 2 0 1 1 2.83-2.829 2 2 0 0 1-2.83 2.829z"/></symbol><symbol viewBox="0 0 24 24" id="arrow-drop-up-line"><path fill="none" d="M0 0h24v24H0z"/><path d="M12 11.828l-2.828 2.829-1.415-1.414L12 9l4.243 4.243-1.415 1.414L12 11.828z"/></symbol><symbol viewBox="0 0 24 24" id="arrow-drop-down-line"><path fill="none" d="M0 0h24v24H0z"/><path d="M12 15l-4.243-4.243 1.415-1.414L12 12.172l2.828-2.829 1.415 1.414z"/></symbol><symbol viewBox="0 0 24 24" id="user-follow-line"><path fill="none" d="M0 0h24v24H0z"/><path d="M14 14.252v2.09A6 6 0 0 0 6 22l-2-.001a8 8 0 0 1 10-7.748zM12 13c-3.315 0-6-2.685-6-6s2.685-6 6-6 6 2.685 6 6-2.685 6-6 6zm0-2c2.21 0 4-1.79 4-4s-1.79-4-4-4-4 1.79-4 4 1.79 4 4 4zm5.793 8.914l3.535-3.535 1.415 1.414-4.95 4.95-3.536-3.536 1.415-1.414 2.12 2.121z"/></symbol><symbol viewBox="0 0 24 24" id="search-eye-line"><path fill="none" d="M0 0h24v24H0z"/><path d="M18.031 16.617l4.283 4.282-1.415 1.415-4.282-4.283A8.96 8.96 0 0 1 11 20c-4.968 0-9-4.032-9-9s4.032-9 9-9 9 4.032 9 9a8.96 8.96 0 0 1-1.969 5.617zm-2.006-.742A6.977 6.977 0 0 0 18 11c0-3.868-3.133-7-7-7-3.868 0-7 3.132-7 7 0 3.867 3.132 7 7 7a6.977 6.977 0 0 0 4.875-1.975l.15-.15zm-3.847-8.699a2 2 0 1 0 2.646 2.646 4 4 0 1 1-2.646-2.646z"/></symbol><symbol viewBox="0 0 24 24" id="feedback-line"><path fill="none" d="M0 0h24v24H0z"/><path d="M6.455 19L2 22.5V4a1 1 0 0 1 1-1h18a1 1 0 0 1 1 1v14a1 1 0 0 1-1 1H6.455zM4 18.385L5.763 17H20V5H4v13.385zM11 13h2v2h-2v-2zm0-6h2v5h-2V7z"/></symbol><symbol viewBox="0 0 24 24" id="restart-line"><path fill="none" d="M0 0h24v24H0z"/><path d="M18.537 19.567A9.961 9.961 0 0 1 12 22C6.477 22 2 17.523 2 12S6.477 2 12 2s10 4.477 10 10c0 2.136-.67 4.116-1.81 5.74L17 12h3a8 8 0 1 0-2.46 5.772l.997 1.795z"/></symbol><symbol viewBox="0 0 24 24" id="calendar-todo-line"><path fill="none" d="M0 0h24v24H0z"/><path d="M17 3h4a1 1 0 0 1 1 1v16a1 1 0 0 1-1 1H3a1 1 0 0 1-1-1V4a1 1 0 0 1 1-1h4V1h2v2h6V1h2v2zm-2 2H9v2H7V5H4v4h16V5h-3v2h-2V5zm5 6H4v8h16v-8zM6 14h2v2H6v-2zm4 0h8v2h-8v-2z"/></symbol></svg>